<svg width="683" height="442" viewBox="0 0 683 442" fill="none" xmlns="http://www.w3.org/2000/svg">
<line x1="1" y1="1" x2="25.0208" y2="1" stroke="#80C5FD" stroke-width="2"/>
<line x1="25" x2="25" y2="60" stroke="#80C5FD" stroke-width="2"/>
<line x1="178" y1="142" x2="178" y2="156" stroke="#80C5FD" stroke-width="2"/>
<line x1="178" y1="27" x2="178" y2="41" stroke="#80C5FD" stroke-width="2"/>
<line x1="26" y1="28" x2="177" y2="28" stroke="#80C5FD" stroke-width="2"/>
<line x1="532" y1="217" x2="683" y2="217" stroke="#80C5FD" stroke-width="2"/>
<line x1="26" y1="155" x2="177" y2="155" stroke="#80C5FD" stroke-width="2"/>
<line x1="176" y1="397" x2="176" y2="411" stroke="#80C5FD" stroke-width="2"/>
<line x1="176" y1="282" x2="176" y2="296" stroke="#80C5FD" stroke-width="2"/>
<line x1="24" y1="283" x2="175" y2="283" stroke="#80C5FD" stroke-width="2"/>
<line x1="24" y1="410" x2="175" y2="410" stroke="#80C5FD" stroke-width="2"/>
<line x1="290" y1="91" x2="423" y2="91" stroke="#80C5FD" stroke-width="2"/>
<line x1="1" y1="59" x2="25.0208" y2="59" stroke="#80C5FD" stroke-width="2"/>
<line x1="1" y1="129" x2="25.0208" y2="129" stroke="#80C5FD" stroke-width="2"/>
<line x1="25" y1="128" x2="25" y2="188" stroke="#80C5FD" stroke-width="2"/>
<line x1="1" y1="187" x2="25.0208" y2="187" stroke="#80C5FD" stroke-width="2"/>
<line x1="266" y1="64" x2="290.021" y2="64" stroke="#80C5FD" stroke-width="2"/>
<line x1="290" y1="63" x2="290" y2="123" stroke="#80C5FD" stroke-width="2"/>
<line x1="424" y1="90" x2="424" y2="167" stroke="#80C5FD" stroke-width="2"/>
<line x1="266" y1="122" x2="290.021" y2="122" stroke="#80C5FD" stroke-width="2"/>
<line x1="508" y1="190" x2="532.021" y2="190" stroke="#80C5FD" stroke-width="2"/>
<line x1="532" y1="189" x2="532" y2="249" stroke="#80C5FD" stroke-width="2"/>
<line x1="508" y1="248" x2="532.021" y2="248" stroke="#80C5FD" stroke-width="2"/>
<line x1="266" y1="314" x2="290.021" y2="314" stroke="#80C5FD" stroke-width="2"/>
<line x1="290" y1="313" x2="290" y2="373" stroke="#80C5FD" stroke-width="2"/>
<line x1="266" y1="372" x2="290.021" y2="372" stroke="#80C5FD" stroke-width="2"/>
<line x1="1" y1="256" x2="25.0208" y2="256" stroke="#80C5FD" stroke-width="2"/>
<line x1="25" y1="255" x2="25" y2="315" stroke="#80C5FD" stroke-width="2"/>
<line x1="1" y1="314" x2="25.0208" y2="314" stroke="#80C5FD" stroke-width="2"/>
<line y1="383" x2="24.0208" y2="383" stroke="#80C5FD" stroke-width="2"/>
<line x1="24" y1="382" x2="24" y2="442" stroke="#80C5FD" stroke-width="2"/>
<line y1="441" x2="24.0208" y2="441" stroke="#80C5FD" stroke-width="2"/>
<line y1="-1" x2="133" y2="-1" transform="matrix(1 0 0 -1 289 344)" stroke="#80C5FD" stroke-width="2"/>
<line y1="-1" x2="77" y2="-1" transform="matrix(0 -1 -1 0 422 346)" stroke="#80C5FD" stroke-width="2"/>
</svg>
