<svg width="77" height="53" viewBox="0 0 77 53" fill="none" xmlns="http://www.w3.org/2000/svg">
<path opacity="0.5" d="M76.916 57.3338C76.916 58.6939 76.0692 59.9101 74.7936 60.3819C73.518 60.8538 72.0835 60.4815 71.1984 59.4489L45.1984 29.1156C44.1552 27.8985 44.1552 26.1025 45.1984 24.8854L71.1984 -5.44792C72.0835 -6.48055 73.518 -6.85284 74.7936 -6.38098C76.0692 -5.90912 76.916 -4.6929 76.916 -3.33285L76.916 57.3338Z" fill="white"/>
<path fill-rule="evenodd" clip-rule="evenodd" d="M58.449 59.8013C59.8118 58.6332 59.9696 56.5815 58.8015 55.2186L34.6144 27.0004L58.8015 -1.21788C59.9696 -2.58069 59.8118 -4.63241 58.449 -5.80053C57.0862 -6.96866 55.0345 -6.81083 53.8663 -5.44802L27.8663 24.8853C26.8231 26.1024 26.8231 27.8984 27.8663 29.1155L53.8663 59.4488C55.0345 60.8116 57.0862 60.9694 58.449 59.8013Z" fill="white"/>
</svg>
