<svg width="77" height="53" viewBox="0 0 77 53" fill="none" xmlns="http://www.w3.org/2000/svg">
<path opacity="0.5" d="M0.0839844 57.3338C0.0839843 58.6939 0.930839 59.9101 2.20641 60.3819C3.48198 60.8538 4.91646 60.4815 5.80157 59.4489L31.8016 29.1156C32.8448 27.8985 32.8448 26.1025 31.8016 24.8854L5.80157 -5.44792C4.91647 -6.48055 3.48198 -6.85284 2.20641 -6.38098C0.930843 -5.90912 0.0839886 -4.6929 0.0839885 -3.33285L0.0839844 57.3338Z" fill="white"/>
<path fill-rule="evenodd" clip-rule="evenodd" d="M18.551 59.8013C17.1882 58.6332 17.0304 56.5815 18.1985 55.2186L42.3856 27.0004L18.1985 -1.21788C17.0304 -2.58069 17.1882 -4.63241 18.551 -5.80053C19.9138 -6.96866 21.9655 -6.81083 23.1337 -5.44802L49.1337 24.8853C50.1769 26.1024 50.1769 27.8984 49.1337 29.1155L23.1337 59.4488C21.9655 60.8116 19.9138 60.9694 18.551 59.8013Z" fill="white"/>
</svg>
