<svg width="40" height="29" viewBox="0 0 40 29" fill="none" xmlns="http://www.w3.org/2000/svg">
<path opacity="0.5" d="M21.3873 36.8357C26.5972 35.7914 33.3333 32.0436 33.3333 22.3521C33.3333 13.5328 26.8778 7.66004 22.2359 4.96157C21.2059 4.36279 20 5.15026 20 6.34169V9.38916C20 11.7923 18.9896 16.1787 16.1822 18.0032C14.7489 18.9347 13.2009 17.5405 13.0267 15.84L12.8836 14.4436C12.7173 12.8202 11.064 11.8348 9.76659 12.8245C7.43578 14.6026 5 17.7162 5 22.3521C5 34.204 13.8148 37.1669 18.2222 37.1669C18.4786 37.1669 18.748 37.1593 19.0284 37.1431C19.7716 37.0495 19.0284 37.3085 21.3873 36.8357Z" fill="#008CFF"/>
<path d="M13.334 31.2404C13.334 35.6067 16.8528 36.9569 19.0291 37.143C19.7723 37.0493 19.0291 37.3084 21.388 36.8355C23.119 36.2239 25.0007 34.6537 25.0007 31.2404C25.0007 29.0776 23.6363 27.7431 22.5674 27.1184C22.2405 26.9273 21.8607 27.1679 21.8315 27.5455C21.7388 28.7424 20.5896 29.6957 19.8067 28.7857C19.1148 27.9815 18.8242 26.8067 18.8242 26.0552V25.0732C18.8242 24.4811 18.2282 24.0889 17.719 24.391C15.8258 25.5141 13.334 27.8248 13.334 31.2404Z" fill="#008CFF"/>
</svg>
