<svg width="25" height="24" viewBox="0 0 25 24" fill="none" xmlns="http://www.w3.org/2000/svg">
<path d="M22.9785 8.16234L22.9785 8.23487C22.9784 9.09561 22.9784 9.52598 22.7712 9.8781C22.564 10.2302 22.1878 10.4392 21.4354 10.8572L20.6421 11.298C21.1888 9.44984 21.3712 7.46414 21.4386 5.76597C21.4415 5.69316 21.4447 5.61945 21.448 5.54497L21.4503 5.49279C22.1016 5.71896 22.4672 5.88758 22.6954 6.20408C22.9785 6.59692 22.9785 7.11873 22.9785 8.16234Z" fill="white"/>
<path d="M2.97852 8.16234L2.97852 8.23487C2.97854 9.09561 2.97855 9.52598 3.18574 9.8781C3.39293 10.2302 3.76915 10.4392 4.52156 10.8572L5.31532 11.2982C4.76859 9.45001 4.58619 7.46422 4.51877 5.76597C4.51588 5.69316 4.51262 5.61945 4.50933 5.54497L4.50702 5.49266C3.85552 5.7189 3.48977 5.88752 3.26161 6.20408C2.97847 6.59692 2.97849 7.11873 2.97852 8.16234Z" fill="white"/>
<path fill-rule="evenodd" clip-rule="evenodd" d="M12.9787 2C14.7622 2 16.2316 2.15709 17.3556 2.34674C18.4944 2.53887 19.0637 2.63494 19.5395 3.22083C20.0152 3.80673 19.99 4.43998 19.9398 5.70647C19.7671 10.0545 18.8288 15.4853 13.7285 15.9657V19.5H15.1587C15.6354 19.5 16.0458 19.8365 16.1393 20.3039L16.3285 21.25H18.9785C19.3927 21.25 19.7285 21.5858 19.7285 22C19.7285 22.4142 19.3927 22.75 18.9785 22.75H6.97852C6.5643 22.75 6.22852 22.4142 6.22852 22C6.22852 21.5858 6.5643 21.25 6.97852 21.25H9.62852L9.81774 20.3039C9.91122 19.8365 10.3216 19.5 10.7983 19.5H12.2285V15.9657C7.12847 15.4851 6.1902 10.0544 6.01759 5.70647C5.9673 4.43998 5.94216 3.80673 6.41788 3.22083C6.8936 2.63494 7.46296 2.53887 8.60169 2.34674C9.72576 2.15709 11.1951 2 12.9787 2ZM13.9309 6.19887L13.8326 6.02251C13.4526 5.34084 13.2626 5 12.9785 5C12.6945 5 12.5045 5.34084 12.1245 6.02251L12.0262 6.19887C11.9182 6.39258 11.8642 6.48944 11.78 6.55334C11.6958 6.61725 11.591 6.64097 11.3813 6.68841L11.1904 6.73161C10.4525 6.89857 10.0835 6.98205 9.99574 7.26432C9.90796 7.54659 10.1595 7.84072 10.6625 8.42898L10.7927 8.58117C10.9356 8.74833 11.0071 8.83191 11.0393 8.93532C11.0714 9.03872 11.0606 9.15023 11.039 9.37327L11.0193 9.57632C10.9433 10.3612 10.9053 10.7536 11.1351 10.9281C11.3649 11.1025 11.7103 10.9435 12.4012 10.6254L12.58 10.5431C12.7763 10.4527 12.8745 10.4075 12.9785 10.4075C13.0826 10.4075 13.1807 10.4527 13.3771 10.5431L13.5558 10.6254C14.2467 10.9435 14.5922 11.1025 14.822 10.9281C15.0518 10.7536 15.0138 10.3612 14.9377 9.57632L14.918 9.37327C14.8964 9.15023 14.8856 9.03872 14.9178 8.93532C14.9499 8.83191 15.0214 8.74833 15.1643 8.58117L15.2945 8.42898C15.7975 7.84072 16.0491 7.54659 15.9613 7.26432C15.8735 6.98205 15.5046 6.89857 14.7667 6.73161L14.5757 6.68841C14.3661 6.64097 14.2612 6.61725 14.177 6.55334C14.0928 6.48944 14.0389 6.39258 13.9309 6.19887Z" fill="white"/>
</svg>
