<svg width="22" height="22" viewBox="0 0 22 22" fill="none" xmlns="http://www.w3.org/2000/svg">
<path d="M8.25069 15.8132C7.87099 15.8132 7.56319 16.121 7.56319 16.5007C7.56319 16.8803 7.87099 17.1882 8.25069 17.1882H13.7507C14.1304 17.1882 14.4382 16.8803 14.4382 16.5007C14.4382 16.121 14.1304 15.8132 13.7507 15.8132H8.25069Z" fill="#BABABA"/>
<path fill-rule="evenodd" clip-rule="evenodd" d="M11.0007 1.14648C10.3532 1.14648 9.94196 1.60423 9.66541 2.01473C9.38475 2.43135 9.09185 3.0316 8.74461 3.74324L6.67039 7.99361C6.46961 8.40504 6.34045 8.66795 6.22838 8.85035C6.15059 8.97695 6.1081 9.01769 6.09814 9.02633C6.0695 9.03965 6.04279 9.04391 6.01817 9.04217C6.00228 9.03335 5.95774 9.00522 5.87583 8.92949C5.72726 8.79211 5.54227 8.58287 5.24892 8.24891L5.22224 8.21854C4.69728 7.6209 4.26846 7.1327 3.91526 6.80252C3.73415 6.63321 3.54379 6.47718 3.34373 6.36534C3.14029 6.25163 2.88483 6.16024 2.59335 6.18584C2.1597 6.22393 1.77491 6.44324 1.50513 6.7692C1.17965 7.16244 1.14302 7.71219 1.14672 8.18744C1.15071 8.70082 1.21484 9.38218 1.29454 10.2288L1.5121 12.5405C1.68167 14.3423 1.81448 15.7535 2.04455 16.8499C2.27893 17.9668 2.63129 18.8506 3.30415 19.539C3.98712 20.2376 4.82631 20.5573 5.86341 20.709C6.86101 20.8549 8.12112 20.8548 9.69958 20.8548H12.3018C13.8802 20.8548 15.1404 20.8549 16.138 20.709C17.1751 20.5573 18.0142 20.2376 18.6972 19.539C19.3701 18.8506 19.7224 17.9668 19.9568 16.8499C20.1869 15.7535 20.3197 14.3423 20.4893 12.5405L20.7068 10.2288C20.7865 9.38218 20.8507 8.70081 20.8546 8.18744C20.8583 7.71219 20.8217 7.16244 20.4962 6.7692C20.2265 6.44324 19.8417 6.22393 19.408 6.18584C19.1165 6.16024 18.8611 6.25163 18.6576 6.36534C18.4576 6.47718 18.2672 6.63321 18.0861 6.80252C17.7329 7.13271 17.3041 7.6209 16.7791 8.21855L16.7524 8.24891C16.4591 8.58287 16.2741 8.79211 16.1255 8.92949C16.0436 9.00522 15.9991 9.03334 15.9832 9.04217C15.9586 9.04391 15.9319 9.03965 15.9032 9.02633C15.8933 9.01769 15.8508 8.97694 15.773 8.85035C15.6609 8.66794 15.5318 8.40504 15.331 7.9936L13.2568 3.74323C12.9095 3.03159 12.6166 2.43135 12.336 2.01473C12.0594 1.60423 11.6482 1.14648 11.0007 1.14648ZM9.95656 4.39496C10.334 3.6216 10.5854 3.11003 10.8058 2.78297C10.8991 2.64445 10.9632 2.57519 11.0007 2.54183C11.0381 2.57519 11.1023 2.64445 11.1956 2.78297C11.4159 3.11003 11.6674 3.6216 12.0448 4.39495L14.1097 8.6262C14.2918 8.99946 14.4501 9.32377 14.6015 9.57016C14.7565 9.82245 14.9609 10.0915 15.2793 10.2518C15.5666 10.3963 15.8903 10.4495 16.2107 10.3988C16.5713 10.3419 16.8448 10.1371 17.059 9.93907C17.2667 9.74707 17.4991 9.48246 17.7627 9.18231L17.7855 9.15635C18.3436 8.52102 18.7276 8.08505 19.0251 7.80697C19.1723 7.66936 19.2691 7.5988 19.3285 7.56556L19.3294 7.5651C19.3603 7.5764 19.3962 7.59876 19.4317 7.63971C19.4317 7.63967 19.4318 7.63968 19.4317 7.63971C19.4314 7.63986 19.4318 7.64165 19.4331 7.64552C19.4417 7.67285 19.4826 7.80288 19.4797 8.17674C19.4762 8.62344 19.4183 9.24518 19.3345 10.1354L19.1245 12.3677C18.9498 14.223 18.8233 15.5564 18.6111 16.5675C18.4014 17.5669 18.1252 18.1571 17.714 18.5778C17.3129 18.9881 16.7977 19.2229 15.939 19.3484C15.0523 19.4781 13.8928 19.4798 12.2473 19.4798H9.75409C8.10858 19.4798 6.94908 19.4781 6.06237 19.3484C5.2037 19.2229 4.68848 18.9881 4.28739 18.5778C3.87618 18.1571 3.59996 17.5669 3.39024 16.5675C3.17807 15.5564 3.05153 14.223 2.87691 12.3677L2.66682 10.1354C2.58304 9.24518 2.52515 8.62344 2.52168 8.17674C2.51877 7.80295 2.55955 7.67292 2.56813 7.64556C2.56935 7.64168 2.56992 7.63986 2.56963 7.63971C2.60511 7.59876 2.64105 7.5764 2.67201 7.5651L2.67283 7.56556C2.7323 7.5988 2.82907 7.66936 2.97627 7.80697C3.27373 8.08505 3.65779 8.52102 4.21588 9.15635L4.23869 9.18232C4.5023 9.48246 4.73472 9.74708 4.94236 9.93907C5.15654 10.1371 5.43011 10.3419 5.79063 10.3988C6.11102 10.4495 6.43475 10.3963 6.72206 10.2518C7.04048 10.0915 7.2449 9.82245 7.39992 9.57016C7.55129 9.32378 7.70953 8.99949 7.89165 8.62626L9.95656 4.39496ZM19.4317 7.63971C19.4335 7.64173 19.4352 7.64379 19.437 7.64591C19.4348 7.64325 19.4333 7.64134 19.4325 7.64038C19.4321 7.64002 19.4319 7.63979 19.4317 7.63971ZM11.0411 2.5132C11.041 2.51362 11.0382 2.51537 11.0326 2.51715C11.0383 2.51366 11.0411 2.51277 11.0411 2.5132ZM10.9688 2.51715C10.9632 2.51537 10.9603 2.51362 10.9603 2.5132C10.9603 2.51277 10.963 2.51366 10.9688 2.51715Z" fill="#BABABA"/>
</svg>
