<svg width="22" height="22" viewBox="0 0 22 22" fill="none" xmlns="http://www.w3.org/2000/svg">
<path d="M3.66602 10.5423V5.23694C3.66602 4.6302 3.66602 4.32683 3.71687 4.07412C3.94075 2.9617 4.86891 2.09155 6.0555 1.88166C6.32505 1.83398 6.64864 1.83398 7.29583 1.83398C7.57939 1.83398 7.72118 1.83398 7.85743 1.84593C8.44489 1.89743 9.00213 2.11382 9.45637 2.46684C9.56173 2.54872 9.66199 2.64271 9.8625 2.83069L10.266 3.20898C10.8643 3.76983 11.1634 4.05026 11.5216 4.23709C11.7183 4.33972 11.9271 4.42077 12.1436 4.47864C12.5378 4.58398 12.9608 4.58398 13.8069 4.58398H14.0809C16.0113 4.58398 16.9765 4.58398 17.6039 5.11299C17.6616 5.16165 17.7165 5.21314 17.7684 5.26724C18.3327 5.85541 18.3327 6.76029 18.3327 8.57004V10.5423" stroke="#BABABA" stroke-width="1.5"/>
<path d="M9.16602 15.584H12.8327" stroke="#BABABA" stroke-width="1.5" stroke-linecap="round"/>
<path d="M3.18701 16.0275C2.74961 13.5378 2.53092 12.2929 3.06082 11.3976C3.19605 11.1691 3.36281 10.9623 3.55583 10.7837C4.31218 10.084 5.53474 10.084 7.97986 10.084H14.0201C16.4653 10.084 17.6878 10.084 18.4442 10.7837C18.6372 10.9623 18.804 11.1691 18.9392 11.3976C19.4691 12.2929 19.2504 13.5378 18.813 16.0275C18.4981 17.8198 18.3407 18.716 17.7952 19.3107C17.6537 19.465 17.4953 19.6017 17.3233 19.7183C16.6604 20.1673 15.7803 20.1673 14.0201 20.1673H7.97986C6.21968 20.1673 5.33959 20.1673 4.67668 19.7183C4.50468 19.6017 4.34633 19.465 4.20481 19.3107C3.65932 18.716 3.50188 17.8198 3.18701 16.0275Z" stroke="#BABABA" stroke-width="1.5"/>
</svg>
