<svg width="22" height="22" viewBox="0 0 22 22" fill="none" xmlns="http://www.w3.org/2000/svg">
<path d="M11.6318 10.4462L9.03703 13.0644C8.71133 13.393 8.54848 13.5573 8.42977 13.7134C7.60997 14.7914 7.60997 16.2905 8.42977 17.3685C8.54848 17.5246 8.71133 17.6889 9.03703 18.0176C9.36272 18.3462 9.52557 18.5105 9.68028 18.6303C10.7487 19.4574 12.2345 19.4574 13.3028 18.6303C13.4575 18.5105 13.6204 18.3462 13.9461 18.0176L17.3123 14.6211C18.6176 13.304 19.2703 12.6455 19.6268 11.9394C20.3475 10.5123 20.3475 8.82341 19.6268 7.39634C19.2703 6.69024 18.6176 6.03172 17.3123 4.71467C16.007 3.39763 15.3543 2.73911 14.6545 2.37933C13.2402 1.6522 11.5663 1.6522 10.1519 2.37933C9.45214 2.73911 8.79948 3.39763 7.49418 4.71467L4.07537 8.16422C3.34231 8.90387 2.97578 9.2737 2.7246 9.63734C1.53711 11.3565 1.53711 13.6401 2.7246 15.3592C2.97578 15.7229 3.34231 16.0927 4.07537 16.8323" stroke="#BABABA" stroke-width="1.5" stroke-linecap="round"/>
</svg>
