<svg width="22" height="22" viewBox="0 0 22 22" fill="none" xmlns="http://www.w3.org/2000/svg">
<path d="M1.83331 10.9993C1.83331 7.54238 1.83331 5.8139 2.90725 4.73996C3.9812 3.66602 5.70968 3.66602 9.16665 3.66602H12.8333C16.2903 3.66602 18.0188 3.66602 19.0927 4.73996C20.1666 5.8139 20.1666 7.54238 20.1666 10.9993C20.1666 14.4563 20.1666 16.1848 19.0927 17.2587C18.0188 18.3327 16.2903 18.3327 12.8333 18.3327H9.16665C5.70968 18.3327 3.9812 18.3327 2.90725 17.2587C1.83331 16.1848 1.83331 14.4563 1.83331 10.9993Z" stroke="#BABABA" stroke-width="1.5"/>
<path d="M5.5 7.33398L7.47899 8.98314C9.16257 10.3861 10.0044 11.0876 11 11.0876C11.9956 11.0876 12.8374 10.3861 14.521 8.98314L16.5 7.33398" stroke="#BABABA" stroke-width="1.5" stroke-linecap="round"/>
</svg>
