<svg width="22" height="22" viewBox="0 0 22 22" fill="none" xmlns="http://www.w3.org/2000/svg">
<path d="M2.75 7.98262C2.75 6.63188 2.75 5.9565 3.10992 5.56259C3.23771 5.42274 3.39301 5.3108 3.5661 5.23379C4.05361 5.01691 4.69433 5.23048 5.97576 5.65763C6.95407 5.98373 7.44323 6.14678 7.93751 6.1299C8.11904 6.12371 8.29951 6.09954 8.47628 6.05775C8.95758 5.94398 9.3866 5.65797 10.2446 5.08595L11.5118 4.24116C12.6109 3.50842 13.1605 3.14205 13.7913 3.05757C14.4222 2.97309 15.0487 3.18195 16.3019 3.59968L17.3696 3.95558C18.2772 4.25809 18.7309 4.40934 18.9905 4.76944C19.25 5.12953 19.25 5.60784 19.25 6.56446V14.0155C19.25 15.3662 19.25 16.0416 18.8901 16.4355C18.7623 16.5753 18.607 16.6873 18.4339 16.7643C17.9464 16.9812 17.3057 16.7676 16.0242 16.3405C15.0459 16.0143 14.5568 15.8513 14.0625 15.8682C13.881 15.8744 13.7005 15.8985 13.5237 15.9403C13.0424 16.0541 12.6134 16.3401 11.7554 16.9121L10.4882 17.7569C9.38907 18.4897 8.83952 18.856 8.20868 18.9405C7.57785 19.025 6.95126 18.8161 5.69808 18.3984L4.63037 18.0425C3.72285 17.74 3.26908 17.5887 3.00954 17.2286C2.75 16.8685 2.75 16.3902 2.75 15.4336V7.98262Z" stroke="#BABABA" stroke-width="1.5"/>
<path d="M8.25 6.08594V18.7922" stroke="#BABABA" stroke-width="1.5"/>
<path d="M13.75 2.75V15.5833" stroke="#BABABA" stroke-width="1.5"/>
</svg>
