<svg width="20" height="20" viewBox="0 0 20 20" fill="none" xmlns="http://www.w3.org/2000/svg">
<path fill-rule="evenodd" clip-rule="evenodd" d="M9.99999 1.04102C7.81386 1.04102 6.04165 2.81322 6.04165 4.99935C6.04165 7.18548 7.81386 8.95768 9.99999 8.95768C12.1861 8.95768 13.9583 7.18548 13.9583 4.99935C13.9583 2.81322 12.1861 1.04102 9.99999 1.04102ZM7.29165 4.99935C7.29165 3.50358 8.50421 2.29102 9.99999 2.29102C11.4958 2.29102 12.7083 3.50358 12.7083 4.99935C12.7083 6.49512 11.4958 7.70768 9.99999 7.70768C8.50421 7.70768 7.29165 6.49512 7.29165 4.99935Z" fill="#BABABA"/>
<path fill-rule="evenodd" clip-rule="evenodd" d="M2.27299 4.84776C2.18927 4.51289 1.84994 4.30929 1.51507 4.39301C1.1802 4.47673 0.976595 4.81606 1.06031 5.15093L1.37862 6.42416C1.96592 8.77336 3.74653 10.624 6.04165 11.315L6.04165 15.0427C6.04163 15.7914 6.04161 16.4158 6.10824 16.9114C6.17858 17.4346 6.33331 17.9069 6.71286 18.2865C7.09242 18.666 7.56476 18.8208 8.08792 18.8911C8.58357 18.9577 9.20792 18.9577 9.95666 18.9577H10.0433C10.792 18.9577 11.4164 18.9577 11.9121 18.8911C12.4352 18.8208 12.9075 18.666 13.2871 18.2865C13.6667 17.9069 13.8214 17.4346 13.8917 16.9114C13.9584 16.4158 13.9583 15.7914 13.9583 15.0427L13.9583 11.5485C14.7759 11.7923 15.4005 12.5026 15.5047 13.3886L16.0459 17.989C16.0863 18.3319 16.3969 18.5771 16.7397 18.5367C17.0825 18.4964 17.3277 18.1858 17.2874 17.843L16.7461 13.2425C16.5425 11.5119 15.0758 10.2077 13.3333 10.2077H6.73709C4.70088 9.72971 3.09948 8.15371 2.5913 6.12099L2.27299 4.84776ZM7.29165 14.9994V11.4577H12.7083V14.9994C12.7083 15.8027 12.707 16.3423 12.6529 16.7449C12.6012 17.1294 12.5118 17.294 12.4032 17.4026C12.2946 17.5112 12.13 17.6005 11.7455 17.6522C11.343 17.7064 10.8033 17.7077 9.99999 17.7077C9.19664 17.7077 8.65701 17.7064 8.25448 17.6522C7.86993 17.6005 7.70535 17.5112 7.59675 17.4026C7.48815 17.294 7.3988 17.1294 7.3471 16.7449C7.29298 16.3423 7.29165 15.8027 7.29165 14.9994Z" fill="#BABABA"/>
</svg>
