<svg width="22" height="22" viewBox="0 0 22 22" fill="none" xmlns="http://www.w3.org/2000/svg">
<path d="M10.1184 3.95649L10.7134 5.02251C11.2503 5.98453 11.0347 7.24655 10.1891 8.09215C10.1891 8.09215 9.16345 9.11785 11.0231 10.9775C12.8828 12.8372 13.9085 11.8115 13.9085 11.8115C14.7541 10.9659 16.0161 10.7504 16.9781 11.2873L18.0442 11.8822C19.4968 12.6929 19.6684 14.7301 18.3915 16.007C17.6243 16.7743 16.6844 17.3713 15.6453 17.4107C13.8962 17.477 10.9257 17.0343 7.94605 14.0546C4.96635 11.0749 4.52368 8.10446 4.58999 6.35533C4.62938 5.3163 5.22639 4.37638 5.99364 3.60913C7.27051 2.33226 9.30773 2.50382 10.1184 3.95649Z" stroke="#BABABA" stroke-width="1.5" stroke-linecap="round"/>
</svg>
