<svg width="30" height="30" viewBox="0 0 30 30" fill="none" xmlns="http://www.w3.org/2000/svg">
<path d="M15 0C23.2843 0 30 6.71573 30 15C30 23.2843 23.2843 30 15 30C6.71573 30 0 23.2843 0 15C2.89916e-07 6.71573 6.71573 2.89935e-07 15 0Z" fill="#80C5FD"/>
<path d="M19.9078 21.875C19.9078 21.875 19.3113 21.1711 18.8142 20.5491C20.9848 19.9435 21.8132 18.6012 21.8132 18.6012C21.1339 19.0432 20.4877 19.3542 19.9078 19.567C19.0793 19.9107 18.284 20.1399 17.5052 20.2708C15.9145 20.5655 14.4564 20.4836 13.2137 20.2545C12.2693 20.0744 11.4574 19.8125 10.7781 19.5506C10.397 19.4033 9.98273 19.2232 9.5685 18.9941C9.51879 18.9613 9.46908 18.945 9.41937 18.9122C9.38624 18.8959 9.36967 18.8795 9.3531 18.8631C9.05485 18.6994 8.88916 18.5849 8.88916 18.5849C8.88916 18.5849 9.68448 19.8944 11.7888 20.5164C11.2917 21.1384 10.6786 21.875 10.6786 21.875C7.01682 21.7604 5.625 19.3869 5.625 19.3869C5.625 14.1161 8.01098 9.84387 8.01098 9.84387C10.397 8.07603 12.667 8.12514 12.667 8.12514L12.8327 8.32156C9.85018 9.17274 8.47492 10.4659 8.47492 10.4659C8.47492 10.4659 8.83945 10.2695 9.45251 9.99119C11.2254 9.22185 12.6338 9.00906 13.2137 8.95995C13.3132 8.94358 13.396 8.92721 13.4954 8.92721C14.5062 8.79626 15.6494 8.76352 16.8424 8.89447C18.4165 9.07453 20.1066 9.53286 21.8298 10.4659C21.8298 10.4659 20.5208 9.23822 17.704 8.38704L17.936 8.12514C17.936 8.12514 20.206 8.07603 22.592 9.84387C22.592 9.84387 24.978 14.1161 24.978 19.3869C24.978 19.3869 23.5696 21.7604 19.9078 21.875Z" fill="white"/>
<path d="M12.6697 14.5273C11.7327 14.5273 10.9929 15.37 10.9929 16.3981C10.9929 17.4261 11.7491 18.2688 12.6697 18.2688C13.6067 18.2688 14.3464 17.4261 14.3464 16.3981C14.3629 15.37 13.6067 14.5273 12.6697 14.5273Z" fill="#80C5FD"/>
<path d="M18.6698 14.5273C17.7328 14.5273 16.993 15.37 16.993 16.3981C16.993 17.4261 17.7492 18.2688 18.6698 18.2688C19.6068 18.2688 20.3465 17.4261 20.3465 16.3981C20.3465 15.37 19.6068 14.5273 18.6698 14.5273Z" fill="#80C5FD"/>
</svg>
