<svg width="16" height="16" viewBox="0 0 16 16" fill="none" xmlns="http://www.w3.org/2000/svg">
<path fill-rule="evenodd" clip-rule="evenodd" d="M3.13815 2.16387C3.3559 2.38205 3.35555 2.73545 3.13736 2.9532C1.88817 4.1999 1.11628 5.92208 1.11628 7.82561C1.11628 9.75137 1.90633 11.4916 3.18142 12.7416C3.40154 12.9574 3.40506 13.3108 3.18927 13.5309C2.97347 13.751 2.6201 13.7545 2.39998 13.5387C0.919548 12.0874 0 10.0634 0 7.82561C0 5.61373 0.898386 3.61063 2.34882 2.16308C2.56701 1.94533 2.9204 1.94568 3.13815 2.16387ZM12.9238 2.21774C13.144 2.00195 13.4973 2.00546 13.7131 2.22558C15.1272 3.66801 16 5.64543 16 7.82561C16 10.0317 15.1063 12.0301 13.6625 13.4768C13.4448 13.695 13.0914 13.6953 12.8732 13.4776C12.655 13.2598 12.6547 12.9064 12.8724 12.6882C14.1159 11.4423 14.8837 9.72417 14.8837 7.82561C14.8837 5.94929 14.1338 4.24925 12.916 3.00703C12.7002 2.7869 12.7037 2.43353 12.9238 2.21774ZM5.25338 4.46749C5.46401 4.69257 5.45229 5.04577 5.22722 5.25639C4.52106 5.91722 4.09302 6.82111 4.09302 7.81236C4.09302 8.81514 4.53112 9.72867 5.25214 10.3914C5.47908 10.6 5.49394 10.9531 5.28533 11.1801C5.07672 11.407 4.72364 11.4219 4.4967 11.2133C3.56441 10.3563 2.97674 9.15202 2.97674 7.81236C2.97674 6.48827 3.55087 5.2963 4.46449 4.44133C4.68956 4.23071 5.04276 4.24242 5.25338 4.46749ZM10.7854 4.49579C10.9985 4.27303 11.3518 4.26518 11.5745 4.47825C12.4655 5.33043 13.0233 6.50732 13.0233 7.81236C13.0233 9.13297 12.4521 10.3222 11.5427 11.1767C11.318 11.3878 10.9648 11.3767 10.7537 11.1521C10.5426 10.9274 10.5537 10.5742 10.7783 10.3631C11.4812 9.70278 11.907 8.80104 11.907 7.81236C11.907 6.8352 11.4911 5.94313 10.8029 5.28492C10.5802 5.07186 10.5723 4.71855 10.7854 4.49579Z" fill="white"/>
<path d="M9.23263 6.67296C9.89925 7.16238 10.2326 7.40709 10.2326 7.82562C10.2326 8.24416 9.89925 8.48887 9.23263 8.97829C9.0486 9.1134 8.86608 9.2406 8.69836 9.3466C8.55122 9.43959 8.38458 9.53578 8.21205 9.63021C7.547 9.99419 7.21447 10.1762 6.91623 9.97468C6.61799 9.77319 6.59088 9.35138 6.53667 8.50775C6.52134 8.26918 6.51163 8.03529 6.51163 7.82562C6.51163 7.61595 6.52134 7.38207 6.53667 7.14349C6.59088 6.29987 6.61799 5.87806 6.91623 5.67656C7.21447 5.47507 7.547 5.65706 8.21205 6.02104C8.38458 6.11547 8.55122 6.21166 8.69836 6.30465C8.86608 6.41065 9.0486 6.53785 9.23263 6.67296Z" fill="white"/>
</svg>
