<svg width="243" height="50" viewBox="0 0 243 50" fill="none" xmlns="http://www.w3.org/2000/svg">
<path d="M4.19694 13.1377L23.48 2L42.9294 13.1792V28.0156L39.0645 37.8649L23.5216 46.9662L7.89564 37.8234L4.07227 28.1402L4.19694 13.1377Z" fill="white" stroke="#008CFF" stroke-width="2"/>
<path d="M20.9039 49.8755L13.0493 45.0963L13.0909 27.3509L0 19.7872L0.0415584 10.769L20.9039 22.821V49.8755Z" fill="#008CFF"/>
<path d="M26.0571 50L33.9116 45.2208L33.87 27.4754L46.9609 19.9117L46.9194 10.8936L26.0571 22.9455V50Z" fill="#008CFF"/>
<path d="M7.89642 30.3428L0.125 25.8545V37.6571L7.89642 42.3947V30.3428Z" fill="#008CFF"/>
<path d="M39.0235 30.2598L46.7949 25.7715V37.5741L39.0235 42.3117V30.2598Z" fill="#008CFF"/>
<path d="M78.6102 21.3202H71.7352V30.6798H78.6102V34.309H69.8255L66.9609 31.2528V20.5562L69.8255 17.5H78.6102V21.3202Z" fill="#008CFF"/>
<path d="M87.7768 17.5H83.0025L86.631 29.5337H88.7317V34.309H92.7421V29.5337H95.0337L98.2802 17.5H93.6969L91.5962 26.0955H90.0685L87.7768 17.5Z" fill="#008CFF"/>
<path d="M113.94 17.5H103.245V34.309H114.322L116.804 32.0169V27.0506L115.277 25.5225L116.804 24.5674V20.3652L113.94 17.5Z" fill="#008CFF"/>
<path d="M134.374 17.5H122.343V34.309H134.374V30.8708H126.735V27.6236H133.228V23.9944H126.735V20.9382H134.374V17.5Z" fill="#008CFF"/>
<path d="M150.797 17.5H139.912V34.309H144.304V29.3427H148.124L150.033 34.309H154.617L151.752 28.5787L153.662 26.6685V20.3652L150.797 17.5Z" fill="#008CFF"/>
<path d="M171.995 17.5L169.322 20.3652V31.6348L171.995 34.309H180.971L183.835 31.6348V20.3652L180.971 17.5H171.995Z" fill="#008CFF"/>
<path d="M193.575 17.5H189.565V34.309H201.405V27.6236H197.776V30.6798H193.766L193.575 17.5Z" fill="#008CFF"/>
<path d="M217.255 17.5H209.998L205.797 34.309H210.571L211.717 30.8708H215.728L216.683 34.309H221.266L217.255 17.5Z" fill="#008CFF"/>
<path d="M231.005 17.5H226.231V34.5H230.432L230.05 23.4213L233.679 29.7247H235.398L238.453 23.4213V34.5H242.846V17.5H237.88L234.634 24.5674L231.005 17.5Z" fill="#008CFF"/>
<path d="M107.172 24.6924V20.4424H112.73V24.6924H107.172Z" fill="white"/>
<path d="M107.172 31.2308V26.9808H112.73V31.2308H107.172Z" fill="white"/>
<path d="M149.345 20.7693H144.114V26.327H149.345V20.7693Z" fill="white"/>
<path d="M179.422 21.0962H173.864V30.9039H179.422V21.0962Z" fill="white"/>
<path d="M214.403 20.7693H213.095L211.787 27.9616H216.037L214.403 20.7693Z" fill="white"/>
</svg>
