<svg width="28" height="28" viewBox="0 0 28 28" fill="none" xmlns="http://www.w3.org/2000/svg">
<path d="M23.6479 9.02455L24.471 13.7843C24.6766 14.9731 23.7624 16.0604 22.5572 16.0604H16.5126C15.9135 16.0604 15.4573 16.5982 15.5543 17.19L16.3274 21.9087C16.453 22.6753 16.4172 23.4597 16.2221 24.2115C16.0606 24.8344 15.58 25.3346 14.948 25.5376L14.7789 25.5919C14.3969 25.7146 13.98 25.6861 13.6199 25.5125C13.2235 25.3215 12.9335 24.9731 12.8261 24.5588L12.2711 22.4193C12.0945 21.7386 11.8373 21.0815 11.5056 20.4606C11.021 19.5535 10.2718 18.8274 9.49302 18.1563L7.81449 16.7099C7.34123 16.3021 7.09268 15.6913 7.14654 15.0685L8.09406 4.11041C8.18098 3.10528 9.02132 2.33366 10.0291 2.33366H15.4525C19.514 2.33366 22.9802 5.16353 23.6479 9.02455Z" fill="#FF0000"/>
<path opacity="0.5" fill-rule="evenodd" clip-rule="evenodd" d="M4.58861 16.9309C5.06425 16.95 5.47163 16.6164 5.51264 16.1742L6.66431 3.75705C6.73829 2.95942 6.06438 2.27195 5.20385 2.27195C4.3933 2.27195 3.73793 2.88498 3.73793 3.63922V16.1028C3.73793 16.5467 4.11298 16.9117 4.58861 16.9309Z" fill="#FF0000"/>
</svg>
