<svg width="28" height="28" viewBox="0 0 28 28" fill="none" xmlns="http://www.w3.org/2000/svg">
<path d="M23.6479 18.9755L24.471 14.2157C24.6766 13.0269 23.7624 11.9396 22.5572 11.9396H16.5126C15.9136 11.9396 15.4574 11.4018 15.5543 10.81L16.3274 6.09133C16.453 5.32475 16.4172 4.54034 16.2221 3.78845C16.0606 3.16559 15.58 2.66545 14.948 2.46242L14.7789 2.40809C14.3969 2.28538 13.98 2.31394 13.6199 2.48747C13.2235 2.67847 12.9335 3.02686 12.8261 3.44121L12.2711 5.58071C12.0945 6.26145 11.8373 6.91853 11.5056 7.53939C11.021 8.44654 10.2718 9.17255 9.49303 9.84365L7.8145 11.2901C7.34123 11.6979 7.09269 12.3087 7.14654 12.9315L8.09407 23.8896C8.18098 24.8947 9.02133 25.6663 10.0291 25.6663H15.4525C19.514 25.6663 22.9802 22.8365 23.6479 18.9755Z" fill="#008DFF"/>
<path opacity="0.5" fill-rule="evenodd" clip-rule="evenodd" d="M4.58861 11.0691C5.06425 11.05 5.47163 11.3836 5.51264 11.8258L6.66431 24.243C6.73829 25.0406 6.06438 25.728 5.20385 25.728C4.3933 25.728 3.73793 25.115 3.73793 24.3608V11.8972C3.73793 11.4533 4.11298 11.0883 4.58861 11.0691Z" fill="#008DFF"/>
</svg>
