<svg width="24" height="20" viewBox="0 0 24 20" fill="none" xmlns="http://www.w3.org/2000/svg">
<path d="M9.37498 10.0003C9.37498 8.55058 10.5502 7.37533 12 7.37533C13.4497 7.37533 14.625 8.55058 14.625 10.0003C14.625 11.4501 13.4497 12.6253 12 12.6253C10.5502 12.6253 9.37498 11.4501 9.37498 10.0003Z" fill="white"/>
<path fill-rule="evenodd" clip-rule="evenodd" d="M0.333313 10.0003C0.333313 11.9129 0.829105 12.557 1.82069 13.8453C3.8006 16.4175 7.12111 19.3337 12 19.3337C16.8788 19.3337 20.1994 16.4175 22.1793 13.8453C23.1709 12.557 23.6666 11.9129 23.6666 10.0003C23.6666 8.08772 23.1709 7.44361 22.1793 6.15538C20.1994 3.58314 16.8788 0.666992 12 0.666992C7.12111 0.666992 3.8006 3.58314 1.82069 6.15538C0.829105 7.44361 0.333313 8.08772 0.333313 10.0003ZM12 5.62533C9.58373 5.62533 7.62498 7.58408 7.62498 10.0003C7.62498 12.4166 9.58373 14.3753 12 14.3753C14.4162 14.3753 16.375 12.4166 16.375 10.0003C16.375 7.58408 14.4162 5.62533 12 5.62533Z" fill="white"/>
</svg>
