<svg width="86" height="90" viewBox="0 0 86 90" fill="none" xmlns="http://www.w3.org/2000/svg">
<path d="M26.8438 3.5625C26.8438 1.64676 25.2907 0.09375 23.375 0.09375C21.4593 0.09375 19.9062 1.64676 19.9062 3.5625V10.8666C13.2493 11.3996 8.87919 12.7079 5.66852 15.9185C2.45786 19.1292 1.14962 23.4993 0.616565 30.1562H92.3834C91.8504 23.4993 90.5421 19.1292 87.3315 15.9185C84.1208 12.7079 79.7506 11.3996 73.0938 10.8666V3.5625C73.0938 1.64676 71.5407 0.09375 69.625 0.09375C67.7093 0.09375 66.1562 1.64676 66.1562 3.5625V10.5597C63.0794 10.5 59.6305 10.5 55.75 10.5H37.25C33.3695 10.5 29.9206 10.5 26.8438 10.5597V3.5625Z" fill="#6EB1FD"/>
<path fill-rule="evenodd" clip-rule="evenodd" d="M0.25 47.5C0.25 43.6195 0.25 40.1706 0.309672 37.0938H92.6903C92.75 40.1706 92.75 43.6195 92.75 47.5V56.75C92.75 74.192 92.75 82.9129 87.3315 88.3315C81.9129 93.75 73.192 93.75 55.75 93.75H37.25C19.808 93.75 11.087 93.75 5.66852 88.3315C0.25 82.9129 0.25 74.192 0.25 56.75V47.5ZM69.625 56.75C72.1793 56.75 74.25 54.6793 74.25 52.125C74.25 49.5707 72.1793 47.5 69.625 47.5C67.0707 47.5 65 49.5707 65 52.125C65 54.6793 67.0707 56.75 69.625 56.75ZM69.625 75.25C72.1793 75.25 74.25 73.1793 74.25 70.625C74.25 68.0707 72.1793 66 69.625 66C67.0707 66 65 68.0707 65 70.625C65 73.1793 67.0707 75.25 69.625 75.25ZM51.125 52.125C51.125 54.6793 49.0543 56.75 46.5 56.75C43.9457 56.75 41.875 54.6793 41.875 52.125C41.875 49.5707 43.9457 47.5 46.5 47.5C49.0543 47.5 51.125 49.5707 51.125 52.125ZM51.125 70.625C51.125 73.1793 49.0543 75.25 46.5 75.25C43.9457 75.25 41.875 73.1793 41.875 70.625C41.875 68.0707 43.9457 66 46.5 66C49.0543 66 51.125 68.0707 51.125 70.625ZM23.375 56.75C25.9293 56.75 28 54.6793 28 52.125C28 49.5707 25.9293 47.5 23.375 47.5C20.8207 47.5 18.75 49.5707 18.75 52.125C18.75 54.6793 20.8207 56.75 23.375 56.75ZM23.375 75.25C25.9293 75.25 28 73.1793 28 70.625C28 68.0707 25.9293 66 23.375 66C20.8207 66 18.75 68.0707 18.75 70.625C18.75 73.1793 20.8207 75.25 23.375 75.25Z" fill="#6EB1FD"/>
</svg>
