<svg width="28" height="28" viewBox="0 0 28 28" fill="none" xmlns="http://www.w3.org/2000/svg">
<path opacity="0.5" d="M11.7099 6.20253L12.4671 7.55928C13.1504 8.78367 12.8761 10.3899 11.7998 11.4661C11.7998 11.4661 10.4944 12.7715 12.8613 15.1384C15.2281 17.5052 16.5336 16.1998 16.5336 16.1998C17.6098 15.1236 19.216 14.8493 20.4404 15.5326L21.7972 16.2898C23.646 17.3216 23.8644 19.9144 22.2392 21.5396C21.2627 22.5161 20.0665 23.2759 18.7441 23.326C16.5179 23.4104 12.7373 22.847 8.945 19.0547C5.15266 15.2623 4.58927 11.4818 4.67366 9.25559C4.72379 7.93319 5.48362 6.73693 6.46012 5.76043C8.08523 4.13532 10.6781 4.35367 11.7099 6.20253Z" fill="white"/>
<path d="M15.4701 2.19379C15.5473 1.71675 15.9982 1.39315 16.4753 1.47038C16.5048 1.47603 16.5998 1.49379 16.6496 1.50487C16.7491 1.52704 16.888 1.56118 17.0612 1.61161C17.4074 1.71246 17.8911 1.8786 18.4717 2.14475C19.634 2.67763 21.1808 3.60981 22.7859 5.21491C24.391 6.82001 25.3231 8.36679 25.856 9.52911C26.1222 10.1097 26.2883 10.5934 26.3892 10.9396C26.4396 11.1128 26.4737 11.2516 26.4959 11.3512C26.507 11.4009 26.5151 11.4409 26.5207 11.4704L26.5274 11.5068C26.6047 11.9839 26.284 12.4535 25.807 12.5307C25.3313 12.6077 24.8832 12.2857 24.8041 11.8109C24.8016 11.7981 24.7949 11.7639 24.7877 11.7316C24.7734 11.667 24.7484 11.5645 24.709 11.429C24.63 11.1579 24.4929 10.755 24.2652 10.2584C23.8104 9.2664 22.9926 7.89652 21.5484 6.45234C20.1042 5.00817 18.7344 4.19034 17.7423 3.73554C17.2457 3.50786 16.8428 3.37074 16.5718 3.29179C16.4363 3.25232 16.2659 3.21322 16.2013 3.19883C15.7265 3.1197 15.393 2.66946 15.4701 2.19379Z" fill="white"/>
<path fill-rule="evenodd" clip-rule="evenodd" d="M15.734 6.21816C15.8668 5.75351 16.3511 5.48445 16.8157 5.61721L16.5753 6.45854C16.8157 5.61721 16.8157 5.61721 16.8157 5.61721L16.8174 5.61769L16.8192 5.61821L16.8231 5.61935L16.8321 5.62205L16.8552 5.62924C16.8728 5.63486 16.8948 5.64219 16.921 5.65148C16.9734 5.67007 17.0426 5.69652 17.1276 5.73292C17.2975 5.80576 17.5298 5.91825 17.815 6.08708C18.3861 6.42505 19.1656 6.98642 20.0814 7.90222C20.9972 8.81802 21.5586 9.59757 21.8966 10.1686C22.0654 10.4539 22.1779 10.6861 22.2507 10.8561C22.2871 10.941 22.3136 11.0103 22.3322 11.0627C22.3414 11.0889 22.3488 11.1108 22.3544 11.1284L22.3616 11.1515L22.3643 11.1606L22.3654 11.1644L22.3659 11.1662C22.3659 11.1662 22.3664 11.1679 21.5251 11.4083L22.3664 11.1679C22.4992 11.6326 22.2301 12.1169 21.7655 12.2496C21.3048 12.3813 20.8247 12.1179 20.6872 11.6605L20.6829 11.6479C20.6767 11.6304 20.6638 11.5958 20.6422 11.5454C20.599 11.4447 20.5208 11.2799 20.3905 11.0599C20.1304 10.6204 19.6606 9.95627 18.844 9.13966C18.0274 8.32305 17.3632 7.85322 16.9237 7.59309C16.7037 7.46287 16.5389 7.38459 16.4382 7.34143C16.3878 7.31982 16.3533 7.30695 16.3357 7.30073L16.3232 7.29642C15.8658 7.1589 15.6024 6.67887 15.734 6.21816Z" fill="white"/>
</svg>
