<svg width="88" height="90" viewBox="0 0 88 90" fill="none" xmlns="http://www.w3.org/2000/svg">
<path d="M87.333 27.3705L87.333 27.6847C87.3329 31.4146 87.3329 33.2796 86.4351 34.8054C85.5372 36.3312 83.907 37.2369 80.6465 39.0484L77.2088 40.9583C79.5777 32.9496 80.368 24.3449 80.6602 16.9862C80.6727 16.6707 80.6868 16.3513 80.7011 16.0285L80.7111 15.8024C83.5333 16.7825 85.1178 17.5132 86.1063 18.8847C87.3332 20.587 87.3332 22.8482 87.333 27.3705Z" fill="#295DFF" fill-opacity="0.2"/>
<path d="M0.666628 27.3705L0.666639 27.6847C0.66674 31.4146 0.666792 33.2796 1.56461 34.8054C2.46243 36.3312 4.09269 37.2369 7.35317 39.0484L10.7928 40.9593C8.42361 32.9504 7.63321 24.3453 7.34105 16.9862C7.32852 16.6707 7.3144 16.3513 7.30014 16.0285L7.29015 15.8019C4.46699 16.7822 2.88207 17.5129 1.89338 18.8847C0.666449 20.587 0.666509 22.8482 0.666628 27.3705Z" fill="#295DFF" fill-opacity="0.2"/>
<path fill-rule="evenodd" clip-rule="evenodd" d="M44.0006 0.666992C51.7293 0.666992 58.0966 1.34771 62.9675 2.16954C67.902 3.0021 70.3693 3.41838 72.4307 5.95727C74.4921 8.49615 74.3832 11.2402 74.1653 16.7284C73.4173 35.5697 69.3513 59.1032 47.25 61.185V76.5003H53.4475C55.5131 76.5003 57.2916 77.9583 57.6967 79.9838L58.5166 84.0837H70C71.7949 84.0837 73.25 85.5387 73.25 87.3337C73.25 89.1286 71.7949 90.5837 70 90.5837H18C16.205 90.5837 14.75 89.1286 14.75 87.3337C14.75 85.5387 16.205 84.0837 18 84.0837H29.4833L30.3033 79.9838C30.7084 77.9583 32.4868 76.5003 34.5524 76.5003H40.75V61.1849C18.6498 59.1022 14.5839 35.5693 13.8359 16.7284C13.618 11.2402 13.5091 8.49615 15.5705 5.95727C17.632 3.41838 20.0992 3.0021 25.0337 2.16954C29.9047 1.34771 36.2719 0.666992 44.0006 0.666992ZM48.1269 18.8621L47.7008 18.0979C46.0542 15.144 45.2309 13.667 44 13.667C42.769 13.667 41.9457 15.144 40.2991 18.0979L39.8731 18.8621C39.4051 19.7015 39.1712 20.1212 38.8064 20.3981C38.4416 20.6751 37.9873 20.7779 37.0786 20.9835L36.2514 21.1706C33.0538 21.8941 31.455 22.2559 31.0746 23.479C30.6942 24.7022 31.7842 25.9768 33.9641 28.5259L34.5281 29.1854C35.1475 29.9098 35.4572 30.2719 35.5966 30.72C35.7359 31.1681 35.6891 31.6513 35.5954 32.6178L35.5102 33.4977C35.1806 36.8988 35.0158 38.5993 36.0117 39.3553C37.0075 40.1112 38.5044 39.422 41.4983 38.0435L42.2729 37.6869C43.1237 37.2952 43.549 37.0993 44 37.0993C44.4509 37.0993 44.8763 37.2952 45.727 37.6869L46.5016 38.0435C49.4955 39.422 50.9924 40.1112 51.9883 39.3553C52.9841 38.5993 52.8193 36.8988 52.4897 33.4977L52.4045 32.6178C52.3108 31.6513 52.264 31.1681 52.4033 30.72C52.5427 30.2719 52.8524 29.9098 53.4719 29.1854L54.0358 28.5259C56.2157 25.9768 57.3057 24.7022 56.9253 23.479C56.5449 22.2559 54.9461 21.8941 51.7486 21.1706L50.9213 20.9835C50.0127 20.7779 49.5583 20.6751 49.1935 20.3981C48.8287 20.1212 48.5948 19.7015 48.1269 18.8621Z" fill="#295DFF" fill-opacity="0.2"/>
</svg>
