<svg width="97" height="98" viewBox="0 0 97 98" fill="none" xmlns="http://www.w3.org/2000/svg">
<path d="M97.125 77.8336V51.6251C97.125 46.7985 97.125 44.3853 95.8155 42.5684C94.7577 41.1008 93.0604 40.3207 90.0334 39.2705C89.4143 46.6992 86.9541 54.2856 83.0905 60.9254C78.5918 68.6566 71.9112 75.5689 63.3485 79.3044C58.3584 81.4813 52.6416 81.4813 47.6515 79.3044C39.0888 75.5689 32.4082 68.6566 27.9095 60.9254C24.979 55.8891 22.8558 50.3083 21.7311 44.6647C19.9618 44.4041 18.6041 44.5378 17.4324 45.1915C16.9649 45.4523 16.5292 45.7664 16.1339 46.1274C13.875 48.1905 13.875 52.0267 13.875 59.6991V82.499C13.875 87.3256 13.875 89.7389 15.1845 91.5557C16.494 93.3726 18.7835 94.1357 23.3623 95.662L25.1363 96.2533C32.4299 98.6845 36.0766 99.9001 39.8068 99.9072C40.9303 99.9093 42.0525 99.8296 43.1644 99.6686C46.8561 99.134 50.3242 97.4 57.2604 93.9319C62.5759 91.2741 65.2337 89.9452 68.0569 89.3287C69.0478 89.1123 70.0518 88.9613 71.0624 88.8767C73.9421 88.6358 76.8476 89.12 82.6586 90.0885C88.5478 91.07 91.4924 91.5608 93.6423 90.3262C94.3724 89.9069 95.0202 89.3582 95.5538 88.7069C97.125 86.7893 97.125 83.8041 97.125 77.8336Z" fill="#6EB1FD"/>
<path fill-rule="evenodd" clip-rule="evenodd" d="M55.5 9.25C40.1741 9.25 27.75 21.0535 27.75 35.6139C27.75 50.0602 36.6068 66.9177 50.4255 72.946C53.6468 74.3513 57.3532 74.3513 60.5745 72.946C74.3932 66.9177 83.25 50.0602 83.25 35.6139C83.25 21.0535 70.8259 9.25 55.5 9.25ZM55.5 46.25C60.6086 46.25 64.75 42.1086 64.75 37C64.75 31.8914 60.6086 27.75 55.5 27.75C50.3914 27.75 46.25 31.8914 46.25 37C46.25 42.1086 50.3914 46.25 55.5 46.25Z" fill="#6EB1FD"/>
</svg>
