<svg width="28" height="28" viewBox="0 0 28 28" fill="none" xmlns="http://www.w3.org/2000/svg">
<path opacity="0.5" d="M13.9993 2.33301C8.84469 2.33301 4.66602 7.00269 4.66602 12.2497C4.66602 17.4555 7.64489 23.1142 12.2926 25.2865C13.376 25.7929 14.6226 25.7929 15.7061 25.2865C20.3538 23.1142 23.3327 17.4555 23.3327 12.2497C23.3327 7.00269 19.154 2.33301 13.9993 2.33301Z" fill="white"/>
<path d="M14.0007 14.5833C15.6115 14.5833 16.9173 13.2775 16.9173 11.6667C16.9173 10.0558 15.6115 8.75 14.0007 8.75C12.3898 8.75 11.084 10.0558 11.084 11.6667C11.084 13.2775 12.3898 14.5833 14.0007 14.5833Z" fill="white"/>
</svg>
