<svg width="33" height="33" viewBox="0 0 33 33" fill="none" xmlns="http://www.w3.org/2000/svg">
<path fill-rule="evenodd" clip-rule="evenodd" d="M28.5312 9.625C28.5312 10.1945 28.0695 10.6562 27.5 10.6562L5.5 10.6563C4.93046 10.6563 4.46875 10.1945 4.46875 9.625C4.46875 9.05546 4.93046 8.59375 5.5 8.59375L27.5 8.59375C28.0695 8.59375 28.5312 9.05546 28.5312 9.625Z" fill="#008CFF"/>
<path fill-rule="evenodd" clip-rule="evenodd" d="M22 16.4996C22 17.1071 21.6623 17.5996 21.2457 17.5996L5.15429 17.5996C4.73771 17.5996 4.4 17.1071 4.4 16.4996C4.4 15.8921 4.73771 15.3996 5.15429 15.3996L21.2457 15.3996C21.6623 15.3996 22 15.8921 22 16.4996Z" fill="#008CFF"/>
<path fill-rule="evenodd" clip-rule="evenodd" d="M15.95 23.0992C15.95 23.7067 15.1889 24.1992 14.9286 24.1992H4.87144C4.61108 24.1992 4.40001 23.7067 4.40001 23.0992C4.40001 22.4917 4.61108 21.9992 4.87144 21.9992H14.9286C15.1889 21.9992 15.95 22.4917 15.95 23.0992Z" fill="#008CFF"/>
</svg>
