<svg width="46" height="46" viewBox="0 0 46 46" fill="none" xmlns="http://www.w3.org/2000/svg">
<path opacity="0.5" d="M25.6 11H19.7333C14.2022 11 11.4366 11 9.71831 12.7574C8 14.5147 8 17.3431 8 23C8 28.6569 8 31.4853 9.71831 33.2426C11.4366 35 14.2022 35 19.7333 35H25.6C31.1311 35 33.8967 35 35.615 33.2426C37.3333 31.4853 37.3333 28.6569 37.3333 23C37.3333 17.3431 37.3333 14.5147 35.615 12.7574C33.8967 11 31.1311 11 25.6 11Z" fill="#008CFF"/>
<path d="M32.5038 16.7122C32.9705 16.3232 33.0336 15.6296 32.6447 15.1629C32.2558 14.6962 31.5621 14.6332 31.0954 15.0221L27.9291 17.6607C26.5607 18.801 25.6107 19.5901 24.8086 20.106C24.0323 20.6053 23.5057 20.7729 22.9996 20.7729C22.4935 20.7729 21.967 20.6053 21.1906 20.106C20.3886 19.5901 19.4386 18.801 18.0702 17.6607L14.9038 15.0221C14.4371 14.6332 13.7435 14.6962 13.3546 15.1629C12.9657 15.6296 13.0287 16.3232 13.4954 16.7122L16.717 19.3968C18.0169 20.4801 19.0706 21.3582 20.0006 21.9563C20.9693 22.5794 21.9127 22.9729 22.9996 22.9729C24.0866 22.9729 25.03 22.5794 25.9987 21.9563C26.9287 21.3582 27.9823 20.4801 29.2823 19.3967L32.5038 16.7122Z" fill="#008CFF"/>
</svg>
