<svg width="26" height="26" viewBox="0 0 26 26" fill="none" xmlns="http://www.w3.org/2000/svg">
<path d="M2.3416 9.20799C2.16602 10.4038 2.16602 11.9703 2.16602 14.0833C2.16602 18.1688 2.16602 20.2116 3.43522 21.4808C4.70442 22.75 6.74718 22.75 10.8327 22.75H15.166C19.2515 22.75 21.2943 22.75 22.5635 21.4808C23.8327 20.2116 23.8327 18.1688 23.8327 14.0833C23.8327 11.9705 23.8327 10.4039 23.6571 9.20821C21.1908 10.8114 19.61 11.8338 18.1453 12.4634V13.0001C18.1453 13.4488 17.7815 13.8126 17.3328 13.8126C16.89 13.8126 16.5299 13.4584 16.5205 13.0179C14.2127 13.6263 11.7862 13.6263 9.47842 13.0178C9.46899 13.4584 9.10892 13.8126 8.66611 13.8126C8.21738 13.8126 7.85361 13.4488 7.85361 13.0001V12.4633C6.38889 11.8336 4.80806 10.8112 2.3416 9.20799Z" fill="#DEDEDE"/>
<path fill-rule="evenodd" clip-rule="evenodd" d="M11.4625 2.4375L11.4404 2.4375C11.3174 2.43748 11.2217 2.43747 11.1311 2.44295C9.98234 2.51253 8.97636 3.23759 8.54707 4.30544C8.51305 4.39008 8.45705 4.55819 8.41711 4.6781L8.41291 4.69072C8.30121 4.99396 8.09953 5.25659 7.86604 5.44412C7.61962 5.45209 7.38425 5.46238 7.15926 5.47566C5.3783 5.58073 4.24811 5.87299 3.43522 6.68587C3.17017 6.95093 2.96047 7.24971 2.79456 7.59379C2.85694 7.61507 2.91771 7.64434 2.97549 7.6819C5.2508 9.16085 6.68036 10.0859 7.8682 10.6794C7.9402 10.3043 8.27006 10.0209 8.66611 10.0209C9.11484 10.0209 9.47861 10.3847 9.47861 10.8334V11.3295C11.7747 12.0224 14.2242 12.0224 16.5203 11.3295V10.8334C16.5203 10.3847 16.884 10.0209 17.3328 10.0209C17.7289 10.0209 18.0587 10.3043 18.1307 10.6794C19.3186 10.086 20.7482 9.16092 23.0236 7.6819C23.0813 7.64441 23.1419 7.61517 23.2042 7.5939C23.0383 7.24977 22.8286 6.95095 22.5635 6.68587C21.7506 5.87299 20.6204 5.58073 18.8394 5.47566C18.6259 5.46305 18.4029 5.45315 18.1701 5.44535C18.1554 5.4334 18.1406 5.42106 18.1259 5.40834C17.8651 5.18305 17.6612 4.88595 17.5585 4.60729L17.5551 4.59707C17.5162 4.48041 17.486 4.38961 17.4521 4.30544C17.0228 3.23759 16.0169 2.51253 14.868 2.44295C14.7775 2.43747 14.6818 2.43748 14.5588 2.4375L11.4625 2.4375ZM16.0518 5.217L16.0469 5.20537L16.0416 5.19227L16.0366 5.17932L16.0327 5.16855L16.0308 5.16313L16.0262 5.14987L16.022 5.13764L16.0198 5.13085L16.0168 5.12182L16.0144 5.11419L16.0125 5.10802C15.9698 4.98017 15.9567 4.94221 15.9444 4.91157C15.7493 4.42618 15.292 4.09661 14.7698 4.06498C14.7349 4.06286 14.692 4.0625 14.5367 4.0625H11.4625C11.3072 4.0625 11.2643 4.06286 11.2294 4.06498C10.7073 4.0966 10.2501 4.42608 10.0549 4.91133L10.052 4.9189L10.0434 4.94265C10.0362 4.9628 10.0275 4.98798 10.0174 5.01753C9.99946 5.06993 9.97936 5.13008 9.95899 5.19118L9.95701 5.19758L9.95458 5.20521L9.95162 5.21424L9.94936 5.22103L9.94521 5.23327L9.94061 5.24653L9.93868 5.25196L9.93474 5.26273L9.92978 5.27569L9.9245 5.28883L9.91998 5.29956L9.91928 5.30114C9.90419 5.33998 9.88821 5.37873 9.87136 5.41736C10.1786 5.41667 10.4988 5.41667 10.8327 5.41667H15.166C15.5035 5.41667 15.827 5.41667 16.1372 5.41739C16.1064 5.35119 16.0779 5.28433 16.0518 5.217Z" fill="#DEDEDE"/>
</svg>
