<svg width="27" height="26" viewBox="0 0 27 26" fill="none" xmlns="http://www.w3.org/2000/svg">
<path fill-rule="evenodd" clip-rule="evenodd" d="M13.3034 2.979C8.06819 2.979 3.82422 7.22297 3.82422 12.4582C3.82422 17.6934 8.06819 21.9373 13.3034 21.9373C18.5386 21.9373 22.7826 17.6934 22.7826 12.4582C22.7826 7.22297 18.5386 2.979 13.3034 2.979ZM2.19922 12.4582C2.19922 6.32551 7.17072 1.354 13.3034 1.354C19.436 1.354 24.4076 6.32551 24.4076 12.4582C24.4076 15.2321 23.3904 17.7684 21.7088 19.7146L25.2529 23.2586C25.5702 23.5759 25.5702 24.0904 25.2529 24.4077C24.9356 24.725 24.4212 24.725 24.1039 24.4077L20.5598 20.8636C18.6136 22.5452 16.0773 23.5623 13.3034 23.5623C7.17072 23.5623 2.19922 18.5908 2.19922 12.4582Z" fill="#646464"/>
</svg>
