<svg width="78" height="52" viewBox="0 0 78 52" fill="none" xmlns="http://www.w3.org/2000/svg">
<path opacity="0.5" d="M10.6254 29.1432C12.1067 21.2427 12.8474 17.2924 15.6594 14.9587C18.4713 12.625 22.4904 12.625 30.5286 12.625H44.1665C52.2047 12.625 56.2238 12.625 59.0357 14.9587C61.8477 17.2924 62.5884 21.2427 64.0697 29.1432L66.6009 42.6431C68.684 53.7526 69.7255 59.3074 66.6889 62.9662C63.6524 66.625 58.0009 66.625 46.6978 66.625H27.9973C16.6942 66.625 11.0427 66.625 8.00614 62.9662C4.96959 59.3074 6.01111 53.7526 8.09414 42.6432L10.6254 29.1432Z" fill="white"/>
<path d="M29.752 9.19965C29.752 5.00574 33.1518 1.6059 37.3457 1.6059C41.5396 1.6059 44.9395 5.00574 44.9395 9.19965V12.5746C46.8497 12.5753 48.5232 12.5805 50.0015 12.6249C50.0018 12.6082 50.002 12.5914 50.002 12.5746V9.19965C50.002 2.2098 44.3356 -3.4566 37.3457 -3.4566C30.3558 -3.4566 24.6895 2.2098 24.6895 9.19965V12.5746C24.6895 12.5915 24.6896 12.6082 24.6899 12.625C26.1682 12.5806 27.8416 12.5753 29.752 12.5747V9.19965Z" fill="white"/>
<path d="M30.1841 42.1562C31.2278 45.109 34.044 47.2185 37.3464 47.2185C40.6488 47.2185 43.4651 45.109 44.5087 42.1562C44.9746 40.8381 46.4208 40.1473 47.7388 40.6131C49.0569 41.079 49.7477 42.5252 49.2819 43.8432C47.5456 48.7555 42.861 52.281 37.3464 52.281C31.8319 52.281 27.1472 48.7555 25.411 43.8432C24.9451 42.5252 25.636 41.079 26.954 40.6131C28.2721 40.1473 29.7183 40.8381 30.1841 42.1562Z" fill="white"/>
</svg>
