<svg width="28" height="28" viewBox="0 0 28 28" fill="none" xmlns="http://www.w3.org/2000/svg">
<path opacity="0.5" d="M14.0007 25.6663C20.444 25.6663 25.6673 20.443 25.6673 13.9997C25.6673 7.55635 20.444 2.33301 14.0007 2.33301C7.55733 2.33301 2.33398 7.55635 2.33398 13.9997C2.33398 20.443 7.55733 25.6663 14.0007 25.6663Z" fill="white"/>
<path fill-rule="evenodd" clip-rule="evenodd" d="M14 8.45801C14.4832 8.45801 14.875 8.84976 14.875 9.33301V13.6372L17.5354 16.2976C17.8771 16.6393 17.8771 17.1934 17.5354 17.5351C17.1937 17.8768 16.6397 17.8768 16.2979 17.5351L13.3813 14.6184C13.2172 14.4543 13.125 14.2317 13.125 13.9997V9.33301C13.125 8.84976 13.5168 8.45801 14 8.45801Z" fill="white"/>
</svg>
