<svg width="168" height="167" viewBox="0 0 168 167" fill="none" xmlns="http://www.w3.org/2000/svg">
<rect x="24.25" y="23.25" width="35.5" height="35.5" fill="#295DFF"/>
<rect x="24.25" y="23.25" width="35.5" height="35.5" stroke="white" stroke-width="0.5"/>
<rect x="24.25" y="59.25" width="35.5" height="35.5" fill="#80C5FD"/>
<rect x="24.25" y="59.25" width="35.5" height="35.5" stroke="white" stroke-width="0.5"/>
<rect x="24.25" y="95.25" width="35.5" height="35.5" fill="#80C5FD"/>
<rect x="24.25" y="95.25" width="35.5" height="35.5" stroke="white" stroke-width="0.5"/>
<rect x="24.25" y="131.25" width="35.5" height="35.5" fill="#80C5FD"/>
<rect x="24.25" y="131.25" width="35.5" height="35.5" stroke="white" stroke-width="0.5"/>
<rect x="60.25" y="23.25" width="35.5" height="35.5" fill="#80C5FD"/>
<rect x="60.25" y="23.25" width="35.5" height="35.5" stroke="white" stroke-width="0.5"/>
<rect x="60.25" y="59.25" width="35.5" height="35.5" fill="#295DFF"/>
<rect x="60.25" y="59.25" width="35.5" height="35.5" stroke="white" stroke-width="0.5"/>
<rect x="60.25" y="95.25" width="35.5" height="35.5" fill="#80C5FD"/>
<rect x="60.25" y="95.25" width="35.5" height="35.5" stroke="white" stroke-width="0.5"/>
<rect x="60.25" y="131.25" width="35.5" height="35.5" fill="#80C5FD"/>
<rect x="60.25" y="131.25" width="35.5" height="35.5" stroke="white" stroke-width="0.5"/>
<rect x="96.25" y="23.25" width="35.5" height="35.5" fill="#80C5FD"/>
<rect x="96.25" y="23.25" width="35.5" height="35.5" stroke="white" stroke-width="0.5"/>
<rect x="96.25" y="59.25" width="35.5" height="35.5" fill="#80C5FD"/>
<rect x="96.25" y="59.25" width="35.5" height="35.5" stroke="white" stroke-width="0.5"/>
<rect x="96.25" y="95.25" width="35.5" height="35.5" fill="#295DFF"/>
<rect x="96.25" y="95.25" width="35.5" height="35.5" stroke="white" stroke-width="0.5"/>
<rect x="96.25" y="131.25" width="35.5" height="35.5" fill="#80C5FD"/>
<rect x="96.25" y="131.25" width="35.5" height="35.5" stroke="white" stroke-width="0.5"/>
<rect x="132.25" y="23.25" width="35.5" height="35.5" fill="#80C5FD"/>
<rect x="132.25" y="23.25" width="35.5" height="35.5" stroke="white" stroke-width="0.5"/>
<rect x="132.25" y="59.25" width="35.5" height="35.5" fill="#80C5FD"/>
<rect x="132.25" y="59.25" width="35.5" height="35.5" stroke="white" stroke-width="0.5"/>
<rect x="132.25" y="95.25" width="35.5" height="35.5" fill="#80C5FD"/>
<rect x="132.25" y="95.25" width="35.5" height="35.5" stroke="white" stroke-width="0.5"/>
<rect x="132.25" y="131.25" width="35.5" height="35.5" fill="#295DFF"/>
<rect x="132.25" y="131.25" width="35.5" height="35.5" stroke="white" stroke-width="0.5"/>
<path d="M0.684594 46L5.09459 36.2H6.88659L11.3106 46H9.40659L5.61259 37.166H6.34059L2.56059 46H0.684594ZM2.71459 43.732L3.20459 42.304H8.49659L8.98659 43.732H2.71459Z" fill="#295DFF"/>
<path d="M1.9908 82V72.2H6.5828C7.75881 72.2 8.65481 72.4333 9.27081 72.9C9.8868 73.3573 10.1948 73.9733 10.1948 74.748C10.1948 75.2707 10.0735 75.7187 9.83081 76.092C9.58814 76.456 9.26147 76.7407 8.85081 76.946C8.44947 77.142 8.0108 77.24 7.5348 77.24L7.7868 76.736C8.33747 76.736 8.83214 76.8387 9.27081 77.044C9.70947 77.24 10.0548 77.5293 10.3068 77.912C10.5681 78.2947 10.6988 78.7707 10.6988 79.34C10.6988 80.18 10.3768 80.8333 9.7328 81.3C9.0888 81.7667 8.13214 82 6.86281 82H1.9908ZM3.8108 80.572H6.7508C7.43214 80.572 7.9548 80.46 8.3188 80.236C8.68281 80.012 8.86481 79.6527 8.86481 79.158C8.86481 78.6727 8.68281 78.318 8.3188 78.094C7.9548 77.8607 7.43214 77.744 6.7508 77.744H3.6708V76.33H6.3868C7.02147 76.33 7.5068 76.218 7.84281 75.994C8.18814 75.77 8.36081 75.434 8.36081 74.986C8.36081 74.5287 8.18814 74.188 7.84281 73.964C7.5068 73.74 7.02147 73.628 6.3868 73.628H3.8108V80.572Z" fill="#295DFF"/>
<path d="M6.76606 118.14C6.0194 118.14 5.32406 118.019 4.68006 117.776C4.0454 117.524 3.49006 117.174 3.01406 116.726C2.5474 116.269 2.1834 115.732 1.92206 115.116C1.66073 114.5 1.53006 113.828 1.53006 113.1C1.53006 112.372 1.66073 111.7 1.92206 111.084C2.1834 110.468 2.55206 109.936 3.02806 109.488C3.50406 109.031 4.0594 108.681 4.69406 108.438C5.32873 108.186 6.02406 108.06 6.78006 108.06C7.58273 108.06 8.3154 108.2 8.97806 108.48C9.64073 108.751 10.2007 109.157 10.6581 109.698L9.48206 110.804C9.1274 110.421 8.73073 110.137 8.29206 109.95C7.8534 109.754 7.3774 109.656 6.86406 109.656C6.35073 109.656 5.8794 109.74 5.45006 109.908C5.03006 110.076 4.6614 110.314 4.34406 110.622C4.03606 110.93 3.7934 111.294 3.61606 111.714C3.44806 112.134 3.36406 112.596 3.36406 113.1C3.36406 113.604 3.44806 114.066 3.61606 114.486C3.7934 114.906 4.03606 115.27 4.34406 115.578C4.6614 115.886 5.03006 116.124 5.45006 116.292C5.8794 116.46 6.35073 116.544 6.86406 116.544C7.3774 116.544 7.8534 116.451 8.29206 116.264C8.73073 116.068 9.1274 115.774 9.48206 115.382L10.6581 116.502C10.2007 117.034 9.64073 117.44 8.97806 117.72C8.3154 118 7.57806 118.14 6.76606 118.14Z" fill="#295DFF"/>
<path d="M1.5328 154V144.2H5.8168C6.8808 144.2 7.81413 144.405 8.6168 144.816C9.41946 145.227 10.0448 145.796 10.4928 146.524C10.9408 147.252 11.1648 148.111 11.1648 149.1C11.1648 150.08 10.9408 150.939 10.4928 151.676C10.0448 152.404 9.41946 152.973 8.6168 153.384C7.81413 153.795 6.8808 154 5.8168 154H1.5328ZM3.3528 152.46H5.7328C6.47013 152.46 7.1048 152.32 7.6368 152.04C8.17813 151.76 8.59346 151.368 8.8828 150.864C9.18146 150.36 9.3308 149.772 9.3308 149.1C9.3308 148.419 9.18146 147.831 8.8828 147.336C8.59346 146.832 8.17813 146.44 7.6368 146.16C7.1048 145.88 6.47013 145.74 5.7328 145.74H3.3528V152.46Z" fill="#295DFF"/>
<path d="M35.1868 14L39.5968 4.2H41.3888L45.8128 14H43.9088L40.1148 5.166H40.8428L37.0628 14H35.1868ZM37.2168 11.732L37.7068 10.304H42.9988L43.4888 11.732H37.2168Z" fill="#295DFF"/>
<path d="M72.4908 14V4.2H77.0828C78.2588 4.2 79.1548 4.43333 79.7708 4.9C80.3868 5.35733 80.6948 5.97333 80.6948 6.748C80.6948 7.27067 80.5735 7.71867 80.3308 8.092C80.0881 8.456 79.7615 8.74067 79.3508 8.946C78.9495 9.142 78.5108 9.24 78.0348 9.24L78.2868 8.736C78.8375 8.736 79.3321 8.83867 79.7708 9.044C80.2095 9.24 80.5548 9.52933 80.8068 9.912C81.0681 10.2947 81.1988 10.7707 81.1988 11.34C81.1988 12.18 80.8768 12.8333 80.2328 13.3C79.5888 13.7667 78.6321 14 77.3628 14H72.4908ZM74.3108 12.572H77.2508C77.9321 12.572 78.4548 12.46 78.8188 12.236C79.1828 12.012 79.3648 11.6527 79.3648 11.158C79.3648 10.6727 79.1828 10.318 78.8188 10.094C78.4548 9.86067 77.9321 9.744 77.2508 9.744H74.1708V8.33H76.8868C77.5215 8.33 78.0068 8.218 78.3428 7.994C78.6881 7.77 78.8608 7.434 78.8608 6.986C78.8608 6.52867 78.6881 6.188 78.3428 5.964C78.0068 5.74 77.5215 5.628 76.8868 5.628H74.3108V12.572Z" fill="#295DFF"/>
<path d="M113.266 14.14C112.519 14.14 111.824 14.0187 111.18 13.776C110.545 13.524 109.99 13.174 109.514 12.726C109.047 12.2687 108.683 11.732 108.422 11.116C108.161 10.5 108.03 9.828 108.03 9.1C108.03 8.372 108.161 7.7 108.422 7.084C108.683 6.468 109.052 5.936 109.528 5.488C110.004 5.03067 110.559 4.68067 111.194 4.438C111.829 4.186 112.524 4.06 113.28 4.06C114.083 4.06 114.815 4.2 115.478 4.48C116.141 4.75067 116.701 5.15667 117.158 5.698L115.982 6.804C115.627 6.42133 115.231 6.13667 114.792 5.95C114.353 5.754 113.877 5.656 113.364 5.656C112.851 5.656 112.379 5.74 111.95 5.908C111.53 6.076 111.161 6.314 110.844 6.622C110.536 6.93 110.293 7.294 110.116 7.714C109.948 8.134 109.864 8.596 109.864 9.1C109.864 9.604 109.948 10.066 110.116 10.486C110.293 10.906 110.536 11.27 110.844 11.578C111.161 11.886 111.53 12.124 111.95 12.292C112.379 12.46 112.851 12.544 113.364 12.544C113.877 12.544 114.353 12.4507 114.792 12.264C115.231 12.068 115.627 11.774 115.982 11.382L117.158 12.502C116.701 13.034 116.141 13.44 115.478 13.72C114.815 14 114.078 14.14 113.266 14.14Z" fill="#295DFF"/>
<path d="M144.533 14V4.2H148.817C149.881 4.2 150.814 4.40533 151.617 4.816C152.419 5.22667 153.045 5.796 153.493 6.524C153.941 7.252 154.165 8.11067 154.165 9.1C154.165 10.08 153.941 10.9387 153.493 11.676C153.045 12.404 152.419 12.9733 151.617 13.384C150.814 13.7947 149.881 14 148.817 14H144.533ZM146.353 12.46H148.733C149.47 12.46 150.105 12.32 150.637 12.04C151.178 11.76 151.593 11.368 151.883 10.864C152.181 10.36 152.331 9.772 152.331 9.1C152.331 8.41867 152.181 7.83067 151.883 7.336C151.593 6.832 151.178 6.44 150.637 6.16C150.105 5.88 149.47 5.74 148.733 5.74H146.353V12.46Z" fill="#295DFF"/>
</svg>
