<svg width="14" height="14" viewBox="0 0 14 14" fill="none" xmlns="http://www.w3.org/2000/svg">
<path d="M6.64264 0.500034C6.64973 0.500026 6.64973 0.500026 6.65696 0.500017C6.6669 0.500013 6.67684 0.500024 6.68678 0.500049C6.70168 0.50008 6.71659 0.500049 6.7315 0.500011C6.89043 0.499925 6.89043 0.499925 6.95781 0.517165C6.96204 0.518217 6.96627 0.519269 6.97062 0.520353C7.08148 0.549096 7.17653 0.613475 7.26875 0.679099C7.27607 0.684261 7.28339 0.689422 7.29072 0.694582C7.32995 0.722325 7.3685 0.750836 7.40679 0.779866C7.4265 0.794365 7.44682 0.807656 7.46759 0.820581C7.47215 0.824086 7.47215 0.824086 7.47679 0.827661C7.47679 0.831583 7.47679 0.835505 7.47679 0.839546C7.48278 0.841385 7.48278 0.841385 7.48889 0.84326C7.51275 0.854327 7.53073 0.870173 7.55072 0.887086C7.58119 0.91238 7.61189 0.936791 7.64433 0.95951C7.67144 0.978498 7.69805 0.997917 7.72421 1.01819C7.72741 1.02067 7.73061 1.02315 7.73391 1.02571C7.73708 1.02816 7.74024 1.03062 7.7435 1.03314C7.80801 1.08306 7.87401 1.13092 7.94042 1.17827C7.94456 1.18123 7.9487 1.18419 7.95297 1.18725C8.1768 1.34662 8.38283 1.39005 8.65369 1.36249C8.65926 1.36194 8.66483 1.3614 8.67056 1.36084C8.76121 1.35195 8.85129 1.33963 8.94147 1.327C9.07712 1.30802 9.21268 1.29127 9.34914 1.27929C9.35311 1.27894 9.35709 1.27858 9.36119 1.27822C9.59392 1.25764 9.81859 1.2481 10.0267 1.36843C10.035 1.373 10.035 1.373 10.0435 1.37767C10.0478 1.3805 10.0521 1.38334 10.0565 1.38626C10.0565 1.39018 10.0565 1.3941 10.0565 1.39814C10.0629 1.40035 10.0629 1.40035 10.0695 1.4026C10.0878 1.41076 10.1011 1.42027 10.1159 1.4338C10.1159 1.43772 10.1159 1.44164 10.1159 1.44568C10.1208 1.4477 10.1208 1.4477 10.1258 1.44977C10.1438 1.45987 10.1564 1.47271 10.1709 1.48728C10.1788 1.49518 10.1788 1.49518 10.187 1.50325C10.1991 1.51699 10.1991 1.51699 10.1991 1.52888C10.203 1.52888 10.207 1.52888 10.211 1.52888C10.211 1.5328 10.211 1.53672 10.211 1.54076C10.2149 1.54076 10.2189 1.54076 10.2229 1.54076C10.23 1.54871 10.23 1.54871 10.238 1.55994C10.2409 1.56406 10.2439 1.56819 10.2469 1.57244C10.25 1.57694 10.2531 1.58144 10.2563 1.58607C10.2595 1.59069 10.2628 1.59531 10.2661 1.60006C10.3162 1.67289 10.3535 1.74889 10.3889 1.82962C10.3981 1.85025 10.4078 1.87062 10.4176 1.891C10.4329 1.92352 10.4464 1.95629 10.4587 1.99007C10.4652 2.00665 10.4722 2.02257 10.4798 2.0387C10.4984 2.07956 10.515 2.12119 10.5316 2.16291C10.5349 2.17124 10.5382 2.17956 10.5415 2.18789C10.5502 2.20967 10.5589 2.23145 10.5676 2.25324C10.6362 2.43532 10.6362 2.43532 10.7162 2.61227C10.7182 2.61614 10.7202 2.62001 10.7222 2.62399C10.7505 2.6789 10.78 2.72988 10.8202 2.77703C10.8292 2.78869 10.8292 2.78869 10.8292 2.80057C10.8331 2.80057 10.837 2.80057 10.8411 2.80057C10.8499 2.80951 10.8499 2.80951 10.86 2.82174C10.8937 2.86391 10.8937 2.86391 10.9362 2.89565C10.9362 2.89957 10.9362 2.9035 10.9362 2.90754C10.9396 2.90911 10.9429 2.91069 10.9464 2.91232C10.9607 2.91984 10.9732 2.92849 10.9863 2.93799C11.0889 3.01016 11.2012 3.06824 11.3168 3.11646C11.3301 3.12216 11.3431 3.12829 11.3562 3.1344C11.4088 3.15843 11.463 3.17903 11.5168 3.2002C11.5225 3.20245 11.5282 3.20469 11.5341 3.207C11.6242 3.24254 11.7146 3.2773 11.8055 3.3106C11.9282 3.35552 12.0579 3.40726 12.1606 3.4899C12.1606 3.49382 12.1606 3.49775 12.1606 3.50179C12.1671 3.50399 12.1671 3.50399 12.1736 3.50624C12.192 3.5144 12.2053 3.52391 12.2201 3.53744C12.2201 3.54136 12.2201 3.54529 12.2201 3.54933C12.2233 3.55067 12.2266 3.55202 12.23 3.55341C12.2479 3.56351 12.2606 3.57635 12.2751 3.59092C12.2804 3.59619 12.2857 3.60146 12.2911 3.60689C12.3033 3.62064 12.3033 3.62064 12.3033 3.63252C12.3072 3.63252 12.3111 3.63252 12.3152 3.63252C12.3249 3.64445 12.3339 3.65632 12.3427 3.66892C12.3453 3.67267 12.3479 3.67643 12.3507 3.68029C12.4214 3.78231 12.4745 3.89414 12.489 4.01841C12.4897 4.02446 12.4897 4.02446 12.4905 4.03063C12.4982 4.10746 12.4927 4.18398 12.4857 4.26057C12.4849 4.26975 12.484 4.27894 12.4832 4.28813C12.4808 4.31522 12.4782 4.34231 12.4757 4.36939C12.475 4.37676 12.4743 4.38414 12.4735 4.39173C12.4645 4.48523 12.4522 4.57814 12.439 4.67112C12.4289 4.74249 12.4202 4.81395 12.4124 4.8856C12.4102 4.90531 12.4078 4.92501 12.4054 4.9447C12.4046 4.95147 12.4038 4.95825 12.403 4.96523C12.4015 4.97792 12.4 4.99061 12.3984 5.0033C12.3885 5.08729 12.3854 5.17094 12.3854 5.25542C12.3854 5.27045 12.3853 5.28548 12.3852 5.30051C12.385 5.35777 12.3879 5.4123 12.3984 5.46875C12.3992 5.47312 12.4 5.47749 12.4008 5.48199C12.4183 5.56751 12.4598 5.64298 12.5098 5.71368C12.5186 5.72611 12.5272 5.73862 12.5358 5.75114C12.5838 5.82041 12.6333 5.88849 12.6837 5.95604C12.6875 5.96117 12.6913 5.96629 12.6953 5.97157C12.7362 6.0265 12.7772 6.08118 12.8204 6.13432C12.8284 6.14419 12.8363 6.15409 12.8442 6.16403C12.8476 6.16832 12.851 6.17261 12.8546 6.17703C12.862 6.1878 12.862 6.1878 12.862 6.19968C12.8659 6.19968 12.8699 6.19968 12.8739 6.19968C12.8801 6.20942 12.886 6.21936 12.8917 6.22939C12.8983 6.23838 12.905 6.24726 12.9118 6.25604C12.9176 6.26357 12.9176 6.26357 12.9235 6.27125C12.9297 6.27921 12.9297 6.27921 12.9359 6.28733C12.9782 6.34233 13.0189 6.39808 13.0582 6.45521C13.0608 6.45899 13.0634 6.46277 13.0661 6.46666C13.1022 6.519 13.1351 6.5726 13.1653 6.6286C13.1705 6.63835 13.1759 6.64804 13.1813 6.65772C13.1991 6.69098 13.2122 6.7245 13.2231 6.76051C13.2243 6.76435 13.2255 6.7682 13.2267 6.77216C13.2469 6.84303 13.2503 6.91489 13.2499 6.98806C13.2499 7.00191 13.2499 7.01575 13.25 7.02959C13.2501 7.11302 13.2407 7.1901 13.2127 7.26933C13.21 7.2774 13.21 7.2774 13.2073 7.28563C13.1695 7.38745 13.0981 7.47932 13.0344 7.56646C13.031 7.5711 13.0276 7.57575 13.0241 7.58053C12.9834 7.63642 12.942 7.69176 12.8996 7.74641C12.8807 7.77093 12.8619 7.7956 12.8431 7.82024C12.8285 7.83937 12.8138 7.85849 12.799 7.87749C12.7678 7.91766 12.7377 7.95849 12.7081 7.9998C12.6842 8.03297 12.6601 8.06587 12.6358 8.09868C12.5975 8.15051 12.5599 8.20282 12.5232 8.25579C12.5205 8.25971 12.5178 8.26363 12.5149 8.26768C12.2806 8.60583 12.4074 9.08362 12.4613 9.46303C12.5053 9.77323 12.5168 10.0865 12.3231 10.3508C12.3205 10.3536 12.3179 10.3565 12.3152 10.3594C12.3112 10.3594 12.3073 10.3594 12.3033 10.3594C12.3019 10.3627 12.3006 10.366 12.2992 10.3694C12.2891 10.3873 12.2763 10.3999 12.2617 10.4144C12.2564 10.4197 12.2511 10.425 12.2457 10.4305C12.232 10.4426 12.232 10.4426 12.2201 10.4426C12.2201 10.4466 12.2201 10.4505 12.2201 10.4545C12.1787 10.4891 12.1298 10.5165 12.0834 10.5437C12.0799 10.5457 12.0765 10.5477 12.073 10.5497C11.9965 10.594 11.9146 10.6265 11.8329 10.66C11.7955 10.6754 11.7583 10.6912 11.7211 10.7071C11.654 10.7356 11.5865 10.7631 11.5188 10.7903C11.4799 10.8059 11.4414 10.8222 11.4033 10.8398C11.3773 10.8515 11.3508 10.8618 11.3244 10.8723C11.273 10.8931 11.2233 10.9156 11.1742 10.9414C11.161 10.9483 11.1477 10.9551 11.1344 10.9618C11.012 11.0247 10.8921 11.0938 10.8117 11.2088C10.8086 11.2132 10.8056 11.2176 10.8024 11.2221C10.7753 11.2617 10.7538 11.3028 10.7336 11.3462C10.7283 11.3574 10.7227 11.3684 10.717 11.3794C10.6591 11.4907 10.6145 11.6086 10.5674 11.7247C10.5357 11.8026 10.5035 11.8804 10.4714 11.9582C10.4668 11.9693 10.4623 11.9804 10.4577 11.9915C10.4324 12.0528 10.4071 12.114 10.3787 12.174C10.372 12.1886 10.3661 12.2033 10.3604 12.2183C10.3258 12.3061 10.2804 12.3819 10.2159 12.451C10.2048 12.4623 10.2048 12.4623 10.1991 12.475C10.1952 12.475 10.1913 12.475 10.1872 12.475C10.1872 12.4789 10.1872 12.4828 10.1872 12.4868C10.1833 12.4868 10.1794 12.4868 10.1753 12.4868C10.1753 12.4908 10.1753 12.4947 10.1753 12.4987C10.0275 12.6389 9.82447 12.7351 9.61927 12.7301C9.44106 12.724 9.26502 12.701 9.08839 12.6776C8.77981 12.636 8.77981 12.636 8.46906 12.6209C8.46018 12.6209 8.46018 12.6209 8.45113 12.6208C8.25122 12.62 8.1027 12.6957 7.94325 12.81C7.92853 12.8196 7.92853 12.8196 7.91664 12.8196C7.91664 12.8236 7.91664 12.8275 7.91664 12.8315C7.90297 12.8416 7.90297 12.8416 7.88506 12.8527C7.87627 12.8582 7.87627 12.8582 7.8673 12.8639C7.85126 12.8731 7.85126 12.8731 7.83343 12.8791C7.83343 12.883 7.83343 12.8869 7.83343 12.8909C7.82401 12.8982 7.82401 12.8982 7.81074 12.9064C7.77134 12.9318 7.73486 12.9608 7.69791 12.9896C7.68988 12.9958 7.68988 12.9958 7.68169 13.0021C7.67687 13.0059 7.67204 13.0096 7.66707 13.0135C7.65511 13.0217 7.65511 13.0217 7.64322 13.0217C7.64322 13.0256 7.64322 13.0295 7.64322 13.0336C7.61105 13.0573 7.61105 13.0573 7.59567 13.0573C7.59567 13.0613 7.59567 13.0652 7.59567 13.0692C7.58387 13.0789 7.58387 13.0789 7.56743 13.0904C7.51754 13.1258 7.46877 13.1626 7.42032 13.2C7.4107 13.2074 7.40107 13.2148 7.39145 13.2222C7.3848 13.2273 7.37817 13.2324 7.37153 13.2375C7.36169 13.2451 7.35182 13.2526 7.34194 13.2601C7.33615 13.2645 7.33037 13.269 7.32441 13.2735C7.31036 13.2831 7.31036 13.2831 7.29847 13.2831C7.29847 13.2871 7.29847 13.291 7.29847 13.295C7.28626 13.3038 7.28626 13.3038 7.26949 13.314C7.24681 13.328 7.22468 13.3423 7.203 13.3578C7.03824 13.4735 6.82371 13.5229 6.62457 13.49C6.60738 13.4868 6.59034 13.4832 6.57331 13.4792C6.56922 13.4783 6.56514 13.4774 6.56093 13.4764C6.4296 13.4454 6.31171 13.3753 6.20478 13.295C6.19714 13.2894 6.18951 13.2837 6.18186 13.2781C6.14698 13.2522 6.11226 13.2262 6.07884 13.1985C6.01541 13.1458 5.94877 13.0969 5.88269 13.0477C5.85838 13.0295 5.83443 13.011 5.81057 12.9923C5.76554 12.957 5.71999 12.9227 5.67343 12.8895C5.64827 12.8715 5.62345 12.8532 5.59889 12.8344C5.49721 12.7567 5.38995 12.6826 5.26564 12.6473C5.26142 12.6461 5.25721 12.6449 5.25287 12.6437C5.23934 12.6403 5.22589 12.6377 5.21214 12.6354C5.20564 12.6343 5.19913 12.6332 5.19243 12.6321C5.00884 12.6058 4.81895 12.6288 4.63598 12.6504C4.61346 12.6531 4.59092 12.6556 4.56838 12.6582C4.46221 12.6702 4.35613 12.6827 4.25023 12.697C4.13021 12.7131 4.01212 12.7255 3.89092 12.7266C3.88084 12.7267 3.87075 12.7269 3.86067 12.727C3.69471 12.7295 3.55334 12.6673 3.41706 12.576C3.41228 12.5728 3.40749 12.5696 3.40255 12.5664C3.39326 12.56 3.3843 12.5532 3.37546 12.5463C3.37546 12.5424 3.37546 12.5384 3.37546 12.5344C3.37035 12.5322 3.37035 12.5322 3.36515 12.5299C3.3496 12.5214 3.33891 12.5113 3.32642 12.4987C3.32222 12.4946 3.31802 12.4904 3.31369 12.4861C3.30413 12.475 3.30413 12.475 3.30413 12.4631C3.30021 12.4631 3.29628 12.4631 3.29224 12.4631C3.28074 12.4487 3.27006 12.4343 3.25955 12.4193C3.25637 12.4147 3.25319 12.4102 3.24992 12.4055C3.16032 12.2751 3.10237 12.1282 3.04207 11.9829C3.03278 11.9605 3.02347 11.9382 3.01415 11.9158C3.01227 11.9113 3.01039 11.9068 3.00846 11.9021C3.00465 11.893 3.00085 11.8839 2.99704 11.8747C2.99323 11.8656 2.98941 11.8564 2.9856 11.8473C2.95141 11.7652 2.91703 11.6832 2.88211 11.6014C2.87906 11.5943 2.87601 11.5871 2.87287 11.5797C2.80205 11.3973 2.80205 11.3973 2.70058 11.2323C2.6919 11.2211 2.6919 11.2211 2.68596 11.2033C2.68203 11.2033 2.67811 11.2033 2.67407 11.2033C2.66652 11.1956 2.66652 11.1956 2.65735 11.1843C2.63662 11.1599 2.61459 11.1371 2.59197 11.1145C2.58855 11.1111 2.58513 11.1076 2.58161 11.1041C2.56412 11.0861 2.56412 11.0861 2.5433 11.0725C2.5433 11.0686 2.5433 11.0647 2.5433 11.0606C2.53992 11.0591 2.53653 11.0575 2.53304 11.0559C2.51878 11.0484 2.50651 11.0397 2.49352 11.0302C2.36802 10.9422 2.22084 10.8888 2.07791 10.8359C2.0495 10.8253 2.02207 10.8133 1.99462 10.8004C1.97078 10.7897 1.94637 10.7806 1.92193 10.7713C1.86879 10.7511 1.81618 10.7301 1.76462 10.7061C1.74673 10.6981 1.72867 10.6907 1.7105 10.6834C1.66754 10.6661 1.62595 10.6473 1.58472 10.6261C1.56355 10.6153 1.54202 10.6054 1.52044 10.5954C1.4686 10.5714 1.4201 10.5454 1.37234 10.5139C1.36728 10.5106 1.36221 10.5073 1.35699 10.5039C1.3481 10.498 1.33923 10.4921 1.33041 10.4861C1.3229 10.481 1.31532 10.4761 1.30766 10.4712C1.29931 10.4659 1.29121 10.4603 1.28318 10.4545C1.28318 10.4506 1.28318 10.4467 1.28318 10.4426C1.2799 10.4413 1.27662 10.4399 1.27325 10.4385C1.25532 10.4284 1.24269 10.4156 1.2282 10.401C1.2229 10.3958 1.2176 10.3905 1.21213 10.3851C1.19997 10.3713 1.19997 10.3713 1.19997 10.3594C1.19604 10.3594 1.19212 10.3594 1.18808 10.3594C1.17246 10.341 1.15976 10.3202 1.14647 10.3C1.14413 10.2965 1.1418 10.293 1.13939 10.2894C0.999364 10.0784 1.0043 9.85582 1.02759 9.61068C1.02883 9.59677 1.03007 9.58285 1.03131 9.56894C1.04072 9.4665 1.0543 9.36492 1.06883 9.26312C1.07674 9.20753 1.08428 9.15189 1.09175 9.09625C1.09328 9.08486 1.09482 9.07347 1.09637 9.06208C1.11121 8.95289 1.12489 8.84455 1.12457 8.7342C1.12455 8.72031 1.12469 8.70642 1.12484 8.69253C1.12567 8.49631 1.03584 8.33097 0.92427 8.17543C0.914657 8.16071 0.914657 8.16071 0.914657 8.14882C0.910734 8.14882 0.906811 8.14882 0.902769 8.14882C0.892716 8.13515 0.892716 8.13515 0.881594 8.11725C0.876066 8.10846 0.876066 8.10846 0.870426 8.0995C0.861162 8.08346 0.861162 8.08346 0.855218 8.06563C0.851295 8.06563 0.847372 8.06563 0.84333 8.06563C0.819554 8.03347 0.819554 8.03347 0.819554 8.01809C0.815631 8.01809 0.811708 8.01809 0.807666 8.01809C0.797984 8.0063 0.797984 8.0063 0.786491 7.98986C0.772984 7.97077 0.75948 7.95173 0.745301 7.93313C0.742876 7.92995 0.740452 7.92677 0.737954 7.92349C0.731054 7.91447 0.724142 7.90546 0.71723 7.89645C0.706619 7.88141 0.706619 7.88141 0.700675 7.86358C0.696752 7.86358 0.692829 7.86358 0.688787 7.86358C0.682332 7.85502 0.682332 7.85502 0.67467 7.84241C0.658063 7.81663 0.639777 7.79298 0.620431 7.76925C0.39639 7.49294 0.217606 7.23693 0.254958 6.86759C0.263354 6.79527 0.280551 6.7281 0.314317 6.6632C0.317512 6.6569 0.320708 6.6506 0.324 6.64412C0.343109 6.60745 0.3637 6.57306 0.388152 6.5397C0.397669 6.5267 0.397669 6.5267 0.405566 6.51303C0.419029 6.49074 0.433938 6.46953 0.448799 6.44815C0.454704 6.43965 0.460602 6.43115 0.466492 6.42264C0.469087 6.41891 0.471681 6.41518 0.474354 6.41133C0.481115 6.4016 0.481115 6.4016 0.486692 6.38984C0.490615 6.38984 0.494538 6.38984 0.49858 6.38984C0.500005 6.38669 0.50143 6.38353 0.502899 6.38028C0.512605 6.36206 0.524401 6.34562 0.536473 6.32893C0.54035 6.32354 0.54035 6.32354 0.544305 6.31804C0.58665 6.25941 0.630135 6.20162 0.674949 6.14485C0.683838 6.13338 0.683838 6.13338 0.693616 6.11612C0.69711 6.11042 0.69711 6.11042 0.700675 6.1046C0.704598 6.1046 0.708521 6.1046 0.712563 6.1046C0.714151 6.1012 0.715739 6.0978 0.717375 6.09429C0.724731 6.0803 0.733084 6.06834 0.742561 6.05569C0.746116 6.05092 0.749672 6.04614 0.753335 6.04122C0.757043 6.03627 0.760751 6.03133 0.764572 6.02624C0.789565 5.99286 0.813717 5.95943 0.835882 5.92409C0.83834 5.92091 0.840798 5.91772 0.84333 5.91444C0.847253 5.91444 0.851176 5.91444 0.855218 5.91444C0.856811 5.91001 0.858405 5.90559 0.860047 5.90103C0.866898 5.88521 0.873957 5.87484 0.884937 5.8617C0.915343 5.82363 0.941691 5.78297 0.968153 5.74211C0.970694 5.73819 0.973235 5.73427 0.975853 5.73023C1.03197 5.64317 1.08154 5.55684 1.11081 5.45687C1.11256 5.45091 1.11256 5.45091 1.11435 5.44482C1.12485 5.40419 1.12474 5.36382 1.12455 5.32205C1.12454 5.31816 1.12453 5.31427 1.12452 5.31026C1.12415 5.23072 1.11707 5.15241 1.10789 5.07342C1.10441 5.04322 1.10126 5.013 1.09811 4.98277C1.08673 4.87443 1.07462 4.76629 1.05991 4.65835C1.04916 4.57937 1.03998 4.50033 1.03205 4.42102C1.03156 4.41614 1.03106 4.41126 1.03056 4.40623C1.00573 4.15917 0.981057 3.89235 1.14745 3.68793C1.17619 3.65374 1.20682 3.62127 1.23781 3.58912C1.24644 3.58016 1.255 3.57112 1.26354 3.56207C1.42813 3.39144 1.6851 3.31522 1.90062 3.23005C1.91819 3.22289 1.93542 3.21526 1.95262 3.20726C1.98153 3.19384 2.01095 3.18243 2.04085 3.17142C2.05832 3.16447 2.07528 3.15704 2.09235 3.14921C2.12185 3.13567 2.15163 3.12299 2.18159 3.11052C2.30869 3.0576 2.43506 3.00331 2.54611 2.92083C2.56105 2.90976 2.57307 2.90158 2.59085 2.89565C2.59085 2.89173 2.59085 2.88781 2.59085 2.88377C2.59979 2.87497 2.59979 2.87497 2.61203 2.86483C2.6164 2.86107 2.62076 2.85732 2.62526 2.85345C2.6296 2.84973 2.63394 2.846 2.63841 2.84217C2.73562 2.75868 2.78479 2.6195 2.83079 2.50335C2.83827 2.48469 2.84645 2.46643 2.85483 2.44815C2.86974 2.41562 2.88367 2.38275 2.89734 2.34968C2.89983 2.34367 2.90233 2.33765 2.9049 2.33145C2.91029 2.31846 2.91568 2.30546 2.92106 2.29246C2.92855 2.27437 2.93606 2.2563 2.94358 2.23823C2.94991 2.22302 2.95623 2.2078 2.96255 2.19259C2.96704 2.18178 2.97153 2.17099 2.97603 2.16019C2.98985 2.12685 3.00333 2.09344 3.0161 2.05969C3.02723 2.03053 3.03939 2.00213 3.05252 1.97383C3.0614 1.95464 3.06999 1.93533 3.07856 1.916C3.14881 1.75795 3.14881 1.75795 3.18525 1.68932C3.1871 1.6858 3.18896 1.68228 3.19087 1.67866C3.21973 1.62438 3.25349 1.57645 3.29224 1.52888C3.29555 1.52472 3.29886 1.52056 3.30227 1.51627C3.3238 1.49001 3.34813 1.46593 3.37546 1.44568C3.37938 1.44568 3.3833 1.44568 3.38734 1.44568C3.38734 1.44176 3.38734 1.43784 3.38734 1.4338C3.39927 1.42405 3.41115 1.41512 3.42375 1.40631C3.42751 1.40368 3.43126 1.40104 3.43513 1.39832C3.57551 1.30119 3.72672 1.26492 3.89574 1.26586C3.90907 1.26592 3.92239 1.26586 3.93571 1.26578C4.07834 1.26561 4.21989 1.28249 4.36118 1.30037C4.3782 1.30252 4.39523 1.30463 4.41226 1.30675C4.50477 1.31825 4.59717 1.3303 4.68944 1.34354C5.01157 1.38953 5.27413 1.39263 5.54449 1.19367C5.57357 1.17233 5.57357 1.17233 5.58661 1.17233C5.58661 1.1684 5.58661 1.16448 5.58661 1.16044C5.59588 1.15397 5.60549 1.148 5.61521 1.14224C5.64529 1.12365 5.67197 1.10307 5.69901 1.08038C5.72077 1.06259 5.74313 1.04574 5.76567 1.02896C5.77388 1.02285 5.78208 1.01674 5.79028 1.01063C5.79413 1.00776 5.79797 1.0049 5.80193 1.00195C5.83285 0.978807 5.86306 0.954812 5.8931 0.930541C5.92025 0.908791 5.94782 0.887638 5.97557 0.866659C5.97972 0.863494 5.98387 0.860328 5.98815 0.857067C5.99405 0.852634 5.99405 0.852634 6.00006 0.848112C6.00358 0.845458 6.00709 0.842804 6.01071 0.84007C6.02052 0.833604 6.02052 0.833604 6.03835 0.827661C6.03835 0.823739 6.03835 0.819817 6.03835 0.815776C6.04905 0.807187 6.04905 0.807187 6.06398 0.797206C6.08533 0.782701 6.10639 0.767984 6.12714 0.752637C6.15874 0.729602 6.1908 0.707248 6.22298 0.685041C6.22801 0.681543 6.23304 0.678045 6.23823 0.674441C6.24295 0.671198 6.24767 0.667955 6.25254 0.664614C6.25679 0.66168 6.26105 0.658746 6.26543 0.655723C6.27611 0.649386 6.27611 0.649386 6.288 0.649386C6.288 0.645464 6.288 0.641542 6.288 0.637501C6.29321 0.634674 6.29321 0.634674 6.29854 0.631791C6.3254 0.617193 6.35221 0.60254 6.37883 0.5875C6.46762 0.537419 6.53893 0.49975 6.64264 0.500034ZM8.72502 4.71406C8.72502 4.71798 8.72502 4.7219 8.72502 4.72594C8.72097 4.72705 8.71693 4.72815 8.71276 4.72928C8.69164 4.73962 8.67886 4.75315 8.66291 4.77016C8.65369 4.77942 8.65369 4.77942 8.6418 4.78537C8.6418 4.78929 8.6418 4.79321 8.6418 4.79725C8.63788 4.79725 8.63396 4.79725 8.62992 4.79725C8.62992 4.80117 8.62992 4.8051 8.62992 4.80914C8.62599 4.80914 8.62207 4.80914 8.61803 4.80914C8.61803 4.81306 8.61803 4.81698 8.61803 4.82102C8.61411 4.82102 8.61018 4.82102 8.60614 4.82102C8.60614 4.82494 8.60614 4.82887 8.60614 4.83291C8.60222 4.83291 8.5983 4.83291 8.59425 4.83291C8.59425 4.83683 8.59425 4.84075 8.59425 4.84479C8.59033 4.84479 8.58641 4.84479 8.58237 4.84479C8.57303 4.85379 8.57303 4.85379 8.56342 4.86559C8.54492 4.88742 8.52601 4.90878 8.50679 4.92998C8.49794 4.93936 8.49794 4.93936 8.49915 4.95176C8.49523 4.95176 8.4913 4.95176 8.48726 4.95176C8.47511 4.96467 8.47511 4.96467 8.46274 4.98073C8.45844 4.9861 8.45413 4.99148 8.44969 4.99702C8.43857 5.00991 8.43857 5.00991 8.43971 5.02307C8.43579 5.02307 8.43186 5.02307 8.42782 5.02307C8.41709 5.03574 8.40698 5.04846 8.39699 5.06169C8.37486 5.09054 8.3524 5.1185 8.32763 5.14517C8.3196 5.15353 8.3196 5.15353 8.32083 5.16569C8.31691 5.16569 8.31299 5.16569 8.30894 5.16569C8.2995 5.17588 8.2995 5.17588 8.29037 5.18871C8.28556 5.19513 8.28556 5.19513 8.28066 5.20167C8.27221 5.21261 8.27221 5.21261 8.27328 5.22511C8.26936 5.22511 8.26543 5.22511 8.26139 5.22511C8.26139 5.22903 8.26139 5.23296 8.26139 5.237C8.25747 5.237 8.25355 5.237 8.2495 5.237C8.24006 5.24719 8.24006 5.24719 8.23093 5.26002C8.22612 5.26644 8.22612 5.26644 8.22122 5.27298C8.21277 5.28392 8.21277 5.28392 8.21384 5.29642C8.20992 5.29642 8.20599 5.29642 8.20195 5.29642C8.19163 5.30755 8.19163 5.30755 8.18078 5.32205C8.17652 5.3275 8.17226 5.33296 8.16787 5.33858C8.1612 5.34713 8.1612 5.34713 8.1544 5.35585C8.12603 5.39105 8.09712 5.42577 8.06784 5.46021C8.04759 5.48408 8.02744 5.50801 8.00766 5.53227C8.00384 5.53695 8.00001 5.54163 7.99607 5.54645C7.98682 5.55717 7.98682 5.55717 7.98797 5.56978C7.98405 5.56978 7.98012 5.56978 7.97608 5.56978C7.96393 5.58269 7.96393 5.58269 7.95156 5.59875C7.94726 5.60412 7.94295 5.6095 7.93851 5.61504C7.92739 5.62793 7.92739 5.62793 7.92853 5.64109C7.92461 5.64109 7.92068 5.64109 7.91664 5.64109C7.9072 5.65128 7.9072 5.65128 7.89807 5.66411C7.89326 5.67053 7.89326 5.67053 7.88836 5.67707C7.87991 5.68801 7.87991 5.68801 7.88098 5.70051C7.87706 5.70051 7.87313 5.70051 7.86909 5.70051C7.85694 5.71342 7.85694 5.71342 7.84457 5.72948C7.84027 5.73486 7.83596 5.74024 7.83152 5.74578C7.8204 5.75867 7.8204 5.75867 7.82154 5.77182C7.81762 5.77182 7.81369 5.77182 7.80965 5.77182C7.79954 5.78375 7.79006 5.79574 7.78067 5.80822C7.7537 5.84338 7.72565 5.87733 7.69656 5.91075C7.66798 5.93879 7.66798 5.93879 7.65511 5.97387C7.65118 5.97387 7.64726 5.97387 7.64322 5.97387C7.6331 5.98579 7.62363 5.99779 7.61424 6.01027C7.59056 6.04113 7.56621 6.07115 7.54069 6.10052C7.51821 6.12644 7.49655 6.15266 7.47574 6.17995C7.46218 6.1972 7.44795 6.21384 7.4337 6.23051C7.41084 6.25724 7.38875 6.28443 7.3672 6.31222C7.34466 6.34125 7.3214 6.36948 7.29736 6.39727C7.24407 6.4485 7.24407 6.4485 7.21525 6.50869C7.21133 6.50869 7.20741 6.50869 7.20337 6.50869C7.19121 6.5216 7.19121 6.5216 7.17885 6.53766C7.17454 6.54304 7.17024 6.54842 7.1658 6.55396C7.15467 6.56685 7.15467 6.56685 7.15582 6.58C7.15189 6.58 7.14797 6.58 7.14393 6.58C7.13449 6.59019 7.13449 6.59019 7.12535 6.60303C7.12055 6.60944 7.12055 6.60944 7.11565 6.61598C7.1072 6.62693 7.1072 6.62693 7.10826 6.63943C7.10434 6.63943 7.10042 6.63943 7.09638 6.63943C7.08539 6.65234 7.07502 6.6653 7.0648 6.6788C7.05913 6.68618 7.05346 6.69356 7.04778 6.70094C7.04501 6.70457 7.04224 6.70819 7.03938 6.71193C7.0312 6.72236 7.02268 6.73241 7.01402 6.74245C7.00003 6.75643 7.00003 6.75643 7.00127 6.77016C6.99735 6.77016 6.99343 6.77016 6.98938 6.77016C6.97865 6.78283 6.96854 6.79556 6.95855 6.80879C6.95259 6.81653 6.94663 6.82427 6.94065 6.832C6.93776 6.83573 6.93488 6.83946 6.93191 6.84331C6.92274 6.85496 6.91313 6.86611 6.9032 6.87713C6.88501 6.89743 6.86826 6.91875 6.85156 6.94027C6.8251 6.97433 6.7976 7.00731 6.76929 7.03984C6.74072 7.06787 6.74072 7.06787 6.72785 7.10294C6.72393 7.10294 6.72 7.10294 6.71596 7.10294C6.70546 7.11523 6.69561 7.12758 6.68587 7.14045C6.67992 7.14817 6.67397 7.15587 6.66802 7.16357C6.66506 7.16742 6.6621 7.17126 6.65905 7.17522C6.62601 7.21782 6.59098 7.25884 6.55608 7.29992C6.52971 7.33099 6.50384 7.36245 6.4782 7.39412C6.47378 7.3994 6.46936 7.40467 6.46481 7.4101C6.45323 7.42255 6.45323 7.42255 6.45443 7.43572C6.4505 7.43572 6.44658 7.43572 6.44254 7.43572C6.43437 7.44468 6.42665 7.45406 6.41914 7.46358C6.40334 7.48338 6.38751 7.50303 6.37098 7.52221C6.3665 7.52742 6.3665 7.52742 6.36192 7.53274C6.35604 7.53955 6.35013 7.54636 6.3442 7.55314C6.32856 7.56936 6.32856 7.56936 6.32366 7.59023C6.31974 7.59023 6.31581 7.59023 6.31177 7.59023C6.30203 7.59963 6.30203 7.59963 6.29208 7.61177C6.28842 7.61609 6.28476 7.62041 6.28098 7.62486C6.27741 7.62912 6.27384 7.63338 6.27016 7.63777C6.26708 7.64129 6.264 7.64481 6.26083 7.64845C6.24526 7.66454 6.24526 7.66454 6.24045 7.68531C6.23652 7.68531 6.2326 7.68531 6.22856 7.68531C6.22856 7.68923 6.22856 7.69315 6.22856 7.69719C6.22463 7.69719 6.22071 7.69719 6.21667 7.69719C6.21667 7.70111 6.21667 7.70504 6.21667 7.70908C6.21275 7.70908 6.20882 7.70908 6.20478 7.70908C6.20478 7.713 6.20478 7.71692 6.20478 7.72096C6.20086 7.72096 6.19694 7.72096 6.19289 7.72096C6.18493 7.73084 6.17702 7.74075 6.16912 7.75068C6.14511 7.77344 6.14511 7.77344 6.1256 7.77687C6.10255 7.77336 6.09378 7.76216 6.07748 7.74572C6.07441 7.74267 6.07134 7.73962 6.06818 7.73647C6.05807 7.72637 6.04807 7.71617 6.03807 7.70597C6.03107 7.69893 6.02407 7.6919 6.01705 7.68487C6.00238 7.67014 5.98775 7.65536 5.97317 7.64054C5.95445 7.62152 5.93565 7.60258 5.91682 7.58366C5.89889 7.56565 5.88099 7.5476 5.8631 7.52955C5.85967 7.52609 5.85624 7.52264 5.85271 7.51908C5.84305 7.50932 5.8334 7.49954 5.82377 7.48975C5.81553 7.4814 5.81553 7.4814 5.80712 7.47288C5.79465 7.45949 5.79465 7.45949 5.7887 7.44761C5.78478 7.44761 5.78086 7.44761 5.77682 7.44761C5.77682 7.44369 5.77682 7.43976 5.77682 7.43572C5.77289 7.43572 5.76897 7.43572 5.76493 7.43572C5.76346 7.43205 5.76199 7.42837 5.76047 7.42458C5.75181 7.40987 5.74485 7.4063 5.72926 7.40007C5.72926 7.39615 5.72926 7.39222 5.72926 7.38818C5.72534 7.38818 5.72142 7.38818 5.71738 7.38818C5.71738 7.38426 5.71738 7.38034 5.71738 7.3763C5.71345 7.3763 5.70953 7.3763 5.70549 7.3763C5.70392 7.37279 5.70236 7.36928 5.70074 7.36567C5.69329 7.35196 5.68556 7.34321 5.6744 7.33238C5.67063 7.32868 5.66686 7.32498 5.66298 7.32117C5.65699 7.31536 5.65699 7.31536 5.65088 7.30944C5.64267 7.30138 5.63448 7.2933 5.62629 7.28521C5.62261 7.2816 5.61892 7.27799 5.61513 7.27427C5.60414 7.26309 5.59387 7.2515 5.58364 7.23962C5.56988 7.22366 5.55575 7.20844 5.54078 7.19361C5.5347 7.18757 5.5347 7.18757 5.5285 7.1814C5.52028 7.17326 5.51204 7.16514 5.50378 7.15703C5.49999 7.15329 5.4962 7.14955 5.4923 7.1457C5.48886 7.14233 5.48542 7.13896 5.48187 7.13549C5.47367 7.12671 5.47367 7.12671 5.46773 7.11483C5.46381 7.11483 5.45988 7.11483 5.45584 7.11483C5.45584 7.11091 5.45584 7.10698 5.45584 7.10294C5.45192 7.10294 5.448 7.10294 5.44395 7.10294C5.44395 7.09902 5.44395 7.0951 5.44395 7.09106C5.44003 7.09106 5.43611 7.09106 5.43207 7.09106C5.43207 7.08714 5.43207 7.08321 5.43207 7.07917C5.42814 7.07917 5.42422 7.07917 5.42018 7.07917C5.41626 7.07133 5.41233 7.06348 5.40829 7.0554C5.40437 7.0554 5.40044 7.0554 5.3964 7.0554C5.39514 7.05219 5.39387 7.04897 5.39257 7.04565C5.3816 7.02657 5.36646 7.01257 5.35071 6.99746C5.33178 6.97919 5.31347 6.96088 5.29653 6.94074C5.26168 6.90074 5.2235 6.86386 5.18597 6.82641C5.17762 6.81805 5.16926 6.80969 5.16091 6.80133C5.14345 6.78387 5.12599 6.76643 5.10852 6.74899C5.08623 6.72674 5.06397 6.70446 5.04172 6.68218C5.02448 6.66493 5.00724 6.6477 4.98999 6.63047C4.98178 6.62226 4.97357 6.61405 4.96537 6.60584C4.91056 6.5506 4.91056 6.5506 4.85265 6.49866C4.8434 6.49068 4.83498 6.48222 4.82653 6.47341C4.81541 6.45977 4.81541 6.45977 4.80201 6.46115C4.80201 6.45723 4.80201 6.45331 4.80201 6.44927C4.70505 6.3581 4.57089 6.30076 4.43943 6.28288C4.43484 6.28223 4.43026 6.28158 4.42554 6.2809C4.27326 6.26334 4.11491 6.28238 3.9758 6.34824C3.96923 6.35122 3.96266 6.3542 3.9559 6.35727C3.86976 6.398 3.79998 6.4544 3.73209 6.52058C3.72875 6.52376 3.7254 6.52694 3.72195 6.53022C3.71321 6.53866 3.70479 6.54742 3.69643 6.55623C3.69643 6.56015 3.69643 6.56408 3.69643 6.56812C3.69251 6.56812 3.68858 6.56812 3.68454 6.56812C3.67479 6.58004 3.66586 6.59191 3.65705 6.60452C3.65441 6.60828 3.65177 6.61204 3.64905 6.61592C3.55068 6.75808 3.51616 6.90015 3.51551 7.07212C3.51546 7.07902 3.51546 7.07902 3.5154 7.08607C3.51451 7.26002 3.56228 7.42387 3.67265 7.56052C3.67969 7.56924 3.67969 7.56924 3.68686 7.57813C3.69598 7.58932 3.70515 7.60047 3.71438 7.61156C3.72615 7.62588 3.72615 7.62588 3.73588 7.63965C3.73855 7.64295 3.74123 7.64625 3.74398 7.64965C3.74791 7.64965 3.75183 7.64965 3.75587 7.64965C3.75743 7.65312 3.75898 7.65659 3.76059 7.66017C3.76815 7.67415 3.77639 7.68384 3.78738 7.69529C3.79315 7.70137 3.79315 7.70137 3.79904 7.70757C3.80306 7.71174 3.80708 7.71592 3.81122 7.72022C3.81913 7.72849 3.82704 7.73677 3.83493 7.74506C3.8387 7.74901 3.84246 7.75296 3.84634 7.75703C3.85599 7.7675 3.865 7.77823 3.87389 7.78935C3.8781 7.79424 3.8823 7.79912 3.88664 7.80416C3.89056 7.80416 3.89448 7.80416 3.89852 7.80416C3.90009 7.80766 3.90166 7.81117 3.90327 7.81478C3.91072 7.8285 3.91845 7.83724 3.92961 7.84808C3.93338 7.85178 3.93715 7.85548 3.94104 7.85929C3.94503 7.86316 3.94902 7.86703 3.95314 7.87101C3.96134 7.87908 3.96954 7.88716 3.97772 7.89525C3.98141 7.89886 3.98509 7.90246 3.98888 7.90618C3.99987 7.91737 4.01015 7.92895 4.02038 7.94084C4.03388 7.95649 4.04771 7.97146 4.0624 7.98601C4.06634 7.98993 4.07029 7.99385 4.07435 7.99789C4.08226 8.00572 4.0902 8.01354 4.09815 8.02134C4.11544 8.03839 4.132 8.05534 4.1472 8.07431C4.15356 8.08178 4.15356 8.08178 4.16006 8.0894C4.16398 8.0894 4.16791 8.0894 4.17195 8.0894C4.17195 8.09332 4.17195 8.09724 4.17195 8.10128C4.17587 8.10128 4.17979 8.10128 4.18384 8.10128C4.18384 8.10521 4.18384 8.10913 4.18384 8.11317C4.18776 8.11317 4.19168 8.11317 4.19572 8.11317C4.19721 8.11659 4.19869 8.12002 4.20022 8.12355C4.20864 8.13881 4.21825 8.14882 4.23071 8.16099C4.23531 8.16552 4.23992 8.17006 4.24466 8.17473C4.24947 8.17942 4.25429 8.1841 4.25925 8.18893C4.28928 8.2183 4.31841 8.24778 4.34576 8.27966C4.36483 8.30116 4.38549 8.32109 4.40599 8.34121C4.41447 8.34954 4.42294 8.35788 4.43139 8.36623C4.43508 8.36985 4.43877 8.37347 4.44257 8.3772C4.45131 8.38652 4.45131 8.38652 4.45726 8.39841C4.46118 8.39841 4.4651 8.39841 4.46915 8.39841C4.46915 8.40233 4.46915 8.40625 4.46915 8.41029C4.47307 8.41029 4.47699 8.41029 4.48103 8.41029C4.48103 8.41422 4.48103 8.41814 4.48103 8.42218C4.48496 8.42218 4.48888 8.42218 4.49292 8.42218C4.49412 8.42533 4.49533 8.42849 4.49657 8.43174C4.5084 8.45214 4.52469 8.4668 4.54159 8.48309C4.58429 8.52495 4.58429 8.52495 4.60288 8.54697C4.62473 8.57276 4.64884 8.59621 4.67299 8.61981C4.68877 8.63534 4.7036 8.6509 4.71744 8.66819C4.724 8.67584 4.724 8.67584 4.73068 8.68365C4.7346 8.68365 4.73853 8.68365 4.74257 8.68365C4.74257 8.68757 4.74257 8.69149 4.74257 8.69553C4.74649 8.69553 4.75041 8.69553 4.75446 8.69553C4.75602 8.69904 4.75759 8.70255 4.7592 8.70616C4.76665 8.71987 4.77438 8.72862 4.78554 8.73945C4.78931 8.74315 4.79308 8.74685 4.79697 8.75066C4.80096 8.75453 4.80495 8.7584 4.80907 8.76239C4.81727 8.77045 4.82547 8.77853 4.83365 8.78662C4.83734 8.79023 4.84102 8.79384 4.84481 8.79756C4.8558 8.80875 4.86608 8.82033 4.87631 8.83221C4.89006 8.84817 4.9042 8.86339 4.91917 8.87822C4.92322 8.88225 4.92727 8.88628 4.93144 8.89043C4.93967 8.89857 4.94791 8.90669 4.95617 8.9148C4.95996 8.91854 4.96374 8.92228 4.96765 8.92613C4.97109 8.9295 4.97453 8.93287 4.97807 8.93634C4.98627 8.94512 4.98627 8.94512 4.99221 8.957C4.99614 8.957 5.00006 8.957 5.0041 8.957C5.0041 8.96093 5.0041 8.96485 5.0041 8.96889C5.00802 8.96889 5.01195 8.96889 5.01599 8.96889C5.01599 8.97281 5.01599 8.97673 5.01599 8.98077C5.01991 8.98077 5.02384 8.98077 5.02788 8.98077C5.02788 8.9847 5.02788 8.98862 5.02788 8.99266C5.0318 8.99266 5.03572 8.99266 5.03977 8.99266C5.0421 8.99782 5.0421 8.99782 5.04448 9.00308C5.05209 9.01723 5.06065 9.02786 5.07134 9.03983C5.07475 9.04368 5.07816 9.04753 5.08167 9.0515C5.0951 9.06594 5.10898 9.0798 5.12298 9.09368C5.13097 9.10166 5.13896 9.10965 5.14694 9.11764C5.15127 9.12196 5.1556 9.12629 5.16006 9.13075C5.20007 9.17075 5.20007 9.17075 5.21263 9.18333C5.21952 9.1902 5.22643 9.19705 5.23339 9.20385C5.24599 9.21619 5.25577 9.22744 5.26564 9.24224C5.26956 9.24224 5.27348 9.24224 5.27752 9.24224C5.28145 9.25009 5.28537 9.25793 5.28941 9.26601C5.29333 9.26601 5.29726 9.26601 5.3013 9.26601C5.3013 9.26994 5.3013 9.27386 5.3013 9.2779C5.30522 9.2779 5.30915 9.2779 5.31319 9.2779C5.31458 9.28123 5.31598 9.28456 5.31742 9.288C5.32693 9.30499 5.33864 9.31656 5.3525 9.33024C5.36069 9.33837 5.36069 9.33837 5.36904 9.34667C5.37482 9.35234 5.38059 9.35802 5.38637 9.36369C5.39208 9.36934 5.39779 9.375 5.4035 9.38065C5.41407 9.39112 5.42465 9.40157 5.43525 9.41201C5.45974 9.43617 5.48398 9.46056 5.50811 9.48507C5.5188 9.49587 5.52948 9.50666 5.54017 9.51746C5.54561 9.52299 5.55104 9.52852 5.55665 9.53423C5.56443 9.54207 5.56443 9.54207 5.57238 9.55007C5.57711 9.55486 5.58183 9.55965 5.58671 9.56458C5.59736 9.57634 5.59736 9.57634 5.61039 9.57502C5.61039 9.57895 5.61039 9.58287 5.61039 9.58691C5.61431 9.58691 5.61823 9.58691 5.62227 9.58691C5.62227 9.59083 5.62227 9.59475 5.62227 9.59879C5.63991 9.61519 5.65906 9.62976 5.678 9.64464C5.68736 9.65204 5.69661 9.65958 5.70586 9.66713C5.88518 9.81181 6.10039 9.83746 6.32493 9.81562C6.43431 9.80206 6.52821 9.75058 6.62086 9.69387C6.62695 9.69018 6.62695 9.69018 6.63316 9.68642C6.64393 9.67983 6.64393 9.67983 6.65652 9.6701C6.65652 9.66618 6.65652 9.66226 6.65652 9.65822C6.66001 9.65662 6.6635 9.65502 6.66709 9.65337C6.72567 9.62218 6.78371 9.55647 6.82295 9.50371C6.82295 9.49979 6.82295 9.49587 6.82295 9.49183C6.82636 9.49048 6.82977 9.48913 6.83329 9.48774C6.85045 9.47779 6.85943 9.46586 6.87162 9.45023C6.88958 9.42765 6.90785 9.40577 6.92734 9.38449C6.94872 9.36102 6.96869 9.33678 6.98834 9.31186C7.00875 9.28639 7.02997 9.26161 7.05112 9.23676C7.05494 9.23225 7.05494 9.23225 7.05884 9.22765C7.06426 9.22128 7.06973 9.21495 7.07524 9.20864C7.09125 9.19216 7.09125 9.19216 7.09638 9.17093C7.1003 9.17093 7.10422 9.17093 7.10826 9.17093C7.11925 9.15802 7.12961 9.14506 7.13984 9.13156C7.14551 9.12418 7.15118 9.1168 7.15686 9.10942C7.15963 9.10579 7.1624 9.10217 7.16526 9.09843C7.17344 9.088 7.18196 9.07795 7.19062 9.06791C7.20461 9.05393 7.20461 9.05393 7.20337 9.0402C7.20729 9.0402 7.21121 9.0402 7.21525 9.0402C7.22741 9.02729 7.22741 9.02729 7.23977 9.01123C7.24408 9.00585 7.24839 9.00047 7.25282 8.99493C7.26395 8.98204 7.26395 8.98204 7.26281 8.96889C7.26673 8.96889 7.27065 8.96889 7.27469 8.96889C7.28413 8.9587 7.28413 8.9587 7.29327 8.94586C7.29647 8.94159 7.29967 8.93731 7.30297 8.93291C7.31142 8.92196 7.31142 8.92196 7.31036 8.90946C7.31428 8.90946 7.3182 8.90946 7.32225 8.90946C7.33236 8.89754 7.34183 8.88554 7.35122 8.87306C7.37443 8.84283 7.39825 8.81341 7.42329 8.78467C7.44997 8.75396 7.47549 8.72256 7.5004 8.6904C7.52376 8.66031 7.54824 8.63128 7.57308 8.6024C7.58499 8.58992 7.58499 8.58992 7.58378 8.57668C7.5877 8.57668 7.59163 8.57668 7.59567 8.57668C7.60782 8.56377 7.60782 8.56377 7.62019 8.54771C7.62449 8.54234 7.6288 8.53696 7.63324 8.53142C7.64436 8.51853 7.64436 8.51853 7.64322 8.50537C7.64714 8.50537 7.65107 8.50537 7.65511 8.50537C7.65511 8.50145 7.65511 8.49753 7.65511 8.49349C7.65903 8.49349 7.66295 8.49349 7.667 8.49349C7.67555 8.48412 7.67555 8.48412 7.68446 8.47157C7.70216 8.44812 7.72067 8.42553 7.73981 8.40324C7.76278 8.37637 7.78499 8.34906 7.80668 8.32116C7.83371 8.28638 7.86177 8.25263 7.89043 8.21918C7.91672 8.19307 7.91672 8.19307 7.92853 8.16071C7.93245 8.16071 7.93638 8.16071 7.94042 8.16071C7.94938 8.15094 7.94938 8.15094 7.95862 8.13805C7.97994 8.10972 8.00243 8.08255 8.02528 8.05544C8.03671 8.04311 8.03671 8.04311 8.03552 8.02997C8.03944 8.02997 8.04337 8.02997 8.04741 8.02997C8.05685 8.01978 8.05685 8.01978 8.06598 8.00695C8.06919 8.00267 8.07239 7.9984 8.07569 7.99399C8.08414 7.98305 8.08414 7.98305 8.08307 7.97055C8.087 7.97055 8.09092 7.97055 8.09496 7.97055C8.10595 7.95764 8.11631 7.94467 8.12654 7.93118C8.13221 7.92379 8.13788 7.91641 8.14356 7.90903C8.14633 7.90541 8.1491 7.90178 8.15195 7.89805C8.16014 7.88761 8.16866 7.87757 8.17732 7.86753C8.19131 7.85354 8.19131 7.85354 8.19006 7.83981C8.19399 7.83981 8.19791 7.83981 8.20195 7.83981C8.2132 7.82665 8.2238 7.81345 8.23427 7.7997C8.23719 7.79593 8.2401 7.79216 8.24311 7.78828C8.24874 7.78098 8.25435 7.77367 8.25993 7.76633C8.26597 7.75841 8.27213 7.75058 8.27832 7.74278C8.28629 7.73323 8.28629 7.73323 8.28517 7.72096C8.28909 7.72096 8.29301 7.72096 8.29706 7.72096C8.30646 7.71214 8.30646 7.71214 8.31563 7.70091C8.31883 7.69718 8.32204 7.69346 8.32534 7.68963C8.33388 7.67986 8.33388 7.67986 8.33272 7.66748C8.33664 7.66748 8.34056 7.66748 8.34461 7.66748C8.36259 7.64932 8.36259 7.64932 8.36838 7.62588C8.37231 7.62588 8.37623 7.62588 8.38027 7.62588C8.39039 7.61396 8.39986 7.60196 8.40925 7.58948C8.43622 7.55432 8.46427 7.52038 8.49337 7.48695C8.52194 7.45892 8.52194 7.45892 8.53481 7.42384C8.53874 7.42384 8.54266 7.42384 8.5467 7.42384C8.55885 7.41093 8.55885 7.41093 8.57122 7.39487C8.57553 7.38949 8.57983 7.38411 8.58427 7.37857C8.5954 7.36568 8.5954 7.36568 8.59425 7.35253C8.59818 7.35253 8.6021 7.35253 8.60614 7.35253C8.61419 7.34267 8.62179 7.33244 8.62917 7.32207C8.65345 7.28863 8.67959 7.25722 8.70674 7.22608C8.7357 7.19781 8.7357 7.19781 8.7488 7.16237C8.75272 7.16237 8.75664 7.16237 8.76068 7.16237C8.77118 7.15008 8.78103 7.13773 8.79078 7.12486C8.79672 7.11715 8.80267 7.10944 8.80863 7.10174C8.81159 7.09789 8.81455 7.09405 8.8176 7.09009C8.85135 7.04659 8.88709 7.00464 8.92285 6.96278C8.95042 6.93516 8.95042 6.93516 8.96278 6.9009C8.9667 6.9009 8.97062 6.9009 8.97467 6.9009C8.98682 6.88799 8.98682 6.88799 8.99919 6.87193C9.00349 6.86655 9.0078 6.86117 9.01223 6.85563C9.02336 6.84274 9.02336 6.84274 9.02222 6.82959C9.02614 6.82959 9.03006 6.82959 9.03411 6.82959C9.04422 6.81766 9.05369 6.80567 9.06308 6.79319C9.09239 6.75501 9.12308 6.71831 9.15461 6.68195C9.15729 6.67885 9.15997 6.67575 9.16273 6.67255C9.1683 6.66611 9.17389 6.65969 9.17951 6.65329C9.19545 6.63684 9.19545 6.63684 9.20054 6.61566C9.20446 6.61566 9.20838 6.61566 9.21243 6.61566C9.22075 6.6057 9.22859 6.59534 9.2362 6.58483C9.24103 6.57826 9.24586 6.57169 9.25069 6.56512C9.25445 6.55999 9.25445 6.55999 9.25828 6.55474C9.30261 6.49441 9.34895 6.43666 9.40263 6.38427C9.42528 6.36194 9.44509 6.33789 9.46495 6.31308C9.47608 6.29945 9.48734 6.28613 9.49894 6.27292C9.50219 6.26921 9.50544 6.2655 9.50878 6.26168C9.51518 6.25439 9.5216 6.24714 9.52806 6.23992C9.54308 6.22276 9.55285 6.21018 9.55717 6.1878C9.5611 6.1878 9.56502 6.1878 9.56906 6.1878C9.5785 6.17761 9.5785 6.17761 9.58764 6.16477C9.59244 6.15836 9.59244 6.15836 9.59734 6.15182C9.60579 6.14087 9.60579 6.14087 9.60473 6.12837C9.60865 6.12837 9.61257 6.12837 9.61661 6.12837C9.6247 6.1188 9.63228 6.1088 9.63965 6.09866C9.64444 6.09211 9.64924 6.08557 9.65404 6.07902C9.65662 6.07548 9.6592 6.07195 9.66186 6.0683C9.67351 6.05243 9.68539 6.03674 9.69726 6.02104C9.75267 5.95994 9.75267 5.95994 9.78304 5.89067C9.78697 5.89067 9.79089 5.89067 9.79493 5.89067C9.80487 5.87711 9.8141 5.86357 9.82317 5.84945C9.82855 5.8412 9.83394 5.83295 9.83933 5.8247C9.84192 5.82069 9.84452 5.81668 9.8472 5.81256C9.85587 5.79924 9.86477 5.78608 9.87369 5.77294C9.95645 5.64813 9.99225 5.53459 9.98514 5.38556C9.9847 5.37549 9.9847 5.37549 9.98425 5.36521C9.97639 5.197 9.94876 5.05764 9.85437 4.9161C9.85045 4.9161 9.84653 4.9161 9.84248 4.9161C9.84131 4.91213 9.84014 4.90817 9.83893 4.90408C9.82732 4.87944 9.81039 4.86128 9.79233 4.84108C9.78885 4.83711 9.78537 4.83314 9.78178 4.82905C9.77237 4.81838 9.76294 4.80774 9.75333 4.79725C9.75025 4.79389 9.74718 4.79054 9.74401 4.78708C9.73593 4.7781 9.73593 4.7781 9.72361 4.77942C9.72361 4.7755 9.72361 4.77158 9.72361 4.76754C9.70793 4.75329 9.70793 4.75329 9.68794 4.74971C9.68794 4.74579 9.68794 4.74187 9.68794 4.73783C9.67576 4.72797 9.66362 4.71891 9.65079 4.70997C9.64701 4.70732 9.64322 4.70467 9.63932 4.70194C9.37997 4.52229 8.97681 4.51096 8.72502 4.71406Z" fill="#0D6EFC"/>
</svg>
